<svg width="24" height="24" viewBox="0 0 24 24" fill="none" xmlns="http://www.w3.org/2000/svg">
<path fill-rule="evenodd" clip-rule="evenodd" d="M20.5666 4.56663C20.641 4.49225 20.7 4.40395 20.7403 4.30676C20.7805 4.20958 20.8012 4.10542 20.8012 4.00023C20.8012 3.89504 20.7805 3.79088 20.7403 3.6937C20.7 3.59651 20.641 3.50821 20.5666 3.43383C20.4923 3.35945 20.4039 3.30045 20.3068 3.26019C20.2096 3.21994 20.1054 3.19922 20.0002 3.19922C19.895 3.19922 19.7909 3.21994 19.6937 3.26019C19.5965 3.30045 19.5082 3.35945 19.4338 3.43383L12.0002 10.869L4.56663 3.43383C4.49225 3.35945 4.40395 3.30045 4.30676 3.26019C4.20958 3.21994 4.10542 3.19922 4.00023 3.19922C3.89504 3.19922 3.79088 3.21994 3.6937 3.26019C3.59651 3.30045 3.50821 3.35945 3.43383 3.43383C3.35945 3.50821 3.30045 3.59651 3.26019 3.6937C3.21994 3.79088 3.19922 3.89504 3.19922 4.00023C3.19922 4.10542 3.21994 4.20958 3.26019 4.30676C3.30045 4.40395 3.35945 4.49225 3.43383 4.56663L10.869 12.0002L3.43383 19.4338C3.28361 19.584 3.19922 19.7878 3.19922 20.0002C3.19922 20.2127 3.28361 20.4164 3.43383 20.5666C3.58405 20.7168 3.78779 20.8012 4.00023 20.8012C4.21267 20.8012 4.41641 20.7168 4.56663 20.5666L12.0002 13.1314L19.4338 20.5666C19.584 20.7168 19.7878 20.8012 20.0002 20.8012C20.2127 20.8012 20.4164 20.7168 20.5666 20.5666C20.7168 20.4164 20.8012 20.2127 20.8012 20.0002C20.8012 19.7878 20.7168 19.584 20.5666 19.4338L13.1314 12.0002L20.5666 4.56663Z" fill="#B81034"/>
</svg>
