<svg width="15" height="15" viewBox="0 0 15 15" fill="none" xmlns="http://www.w3.org/2000/svg">
<path d="M12.8906 12.2461H2.10938C1.8501 12.2461 1.64062 12.4556 1.64062 12.7148V13.2422C1.64062 13.3066 1.69336 13.3594 1.75781 13.3594H13.2422C13.3066 13.3594 13.3594 13.3066 13.3594 13.2422V12.7148C13.3594 12.4556 13.1499 12.2461 12.8906 12.2461ZM3.7749 11.0156C3.8042 11.0156 3.8335 11.0127 3.86279 11.0083L6.32666 10.5762C6.35596 10.5703 6.38379 10.5571 6.4043 10.5352L12.6138 4.32568C12.6273 4.31213 12.6381 4.29604 12.6455 4.27831C12.6528 4.26059 12.6566 4.2416 12.6566 4.22241C12.6566 4.20323 12.6528 4.18423 12.6455 4.16651C12.6381 4.14879 12.6273 4.13269 12.6138 4.11914L10.1792 1.68311C10.1514 1.65527 10.1147 1.64062 10.0752 1.64062C10.0356 1.64062 9.99902 1.65527 9.97119 1.68311L3.76172 7.89258C3.73975 7.91455 3.72656 7.94092 3.7207 7.97021L3.28857 10.4341C3.27432 10.5126 3.27942 10.5933 3.30341 10.6694C3.3274 10.7454 3.36957 10.8145 3.42627 10.8706C3.52295 10.9644 3.64453 11.0156 3.7749 11.0156Z" fill="#B81034"/>
</svg>
