<svg width="15" height="15" viewBox="0 0 15 15" fill="none" xmlns="http://www.w3.org/2000/svg">
<path d="M5.15625 5.15625C5.28057 5.15625 5.3998 5.20564 5.48771 5.29354C5.57561 5.38145 5.625 5.50068 5.625 5.625V11.25C5.625 11.3743 5.57561 11.4935 5.48771 11.5815C5.3998 11.6694 5.28057 11.7188 5.15625 11.7188C5.03193 11.7188 4.9127 11.6694 4.82479 11.5815C4.73689 11.4935 4.6875 11.3743 4.6875 11.25V5.625C4.6875 5.50068 4.73689 5.38145 4.82479 5.29354C4.9127 5.20564 5.03193 5.15625 5.15625 5.15625ZM7.5 5.15625C7.62432 5.15625 7.74355 5.20564 7.83146 5.29354C7.91936 5.38145 7.96875 5.50068 7.96875 5.625V11.25C7.96875 11.3743 7.91936 11.4935 7.83146 11.5815C7.74355 11.6694 7.62432 11.7188 7.5 11.7188C7.37568 11.7188 7.25645 11.6694 7.16854 11.5815C7.08064 11.4935 7.03125 11.3743 7.03125 11.25V5.625C7.03125 5.50068 7.08064 5.38145 7.16854 5.29354C7.25645 5.20564 7.37568 5.15625 7.5 5.15625ZM10.3125 5.625C10.3125 5.50068 10.2631 5.38145 10.1752 5.29354C10.0873 5.20564 9.96807 5.15625 9.84375 5.15625C9.71943 5.15625 9.6002 5.20564 9.51229 5.29354C9.42439 5.38145 9.375 5.50068 9.375 5.625V11.25C9.375 11.3743 9.42439 11.4935 9.51229 11.5815C9.6002 11.6694 9.71943 11.7188 9.84375 11.7188C9.96807 11.7188 10.0873 11.6694 10.1752 11.5815C10.2631 11.4935 10.3125 11.3743 10.3125 11.25V5.625Z" fill="#B81034"/>
<path fill-rule="evenodd" clip-rule="evenodd" d="M13.5938 2.8125C13.5938 3.06114 13.495 3.2996 13.3192 3.47541C13.1433 3.65123 12.9049 3.75 12.6562 3.75H12.1875V12.1875C12.1875 12.6848 11.99 13.1617 11.6383 13.5133C11.2867 13.865 10.8098 14.0625 10.3125 14.0625H4.6875C4.19022 14.0625 3.71331 13.865 3.36167 13.5133C3.01004 13.1617 2.8125 12.6848 2.8125 12.1875V3.75H2.34375C2.09511 3.75 1.85665 3.65123 1.68084 3.47541C1.50502 3.2996 1.40625 3.06114 1.40625 2.8125V1.875C1.40625 1.62636 1.50502 1.3879 1.68084 1.21209C1.85665 1.03627 2.09511 0.9375 2.34375 0.9375H5.625C5.625 0.68886 5.72377 0.450403 5.89959 0.274587C6.0754 0.0987721 6.31386 0 6.5625 0L8.4375 0C8.68614 0 8.9246 0.0987721 9.10041 0.274587C9.27623 0.450403 9.375 0.68886 9.375 0.9375H12.6562C12.9049 0.9375 13.1433 1.03627 13.3192 1.21209C13.495 1.3879 13.5938 1.62636 13.5938 1.875V2.8125ZM3.86063 3.75L3.75 3.80531V12.1875C3.75 12.4361 3.84877 12.6746 4.02459 12.8504C4.2004 13.0262 4.43886 13.125 4.6875 13.125H10.3125C10.5611 13.125 10.7996 13.0262 10.9754 12.8504C11.1512 12.6746 11.25 12.4361 11.25 12.1875V3.80531L11.1394 3.75H3.86063ZM2.34375 2.8125V1.875H12.6562V2.8125H2.34375Z" fill="#B81034"/>
</svg>
