<svg width="23" height="23" viewBox="0 0 23 23" fill="none" xmlns="http://www.w3.org/2000/svg">
<path d="M20.125 1.4375C20.5062 1.4375 20.8719 1.58895 21.1415 1.85853C21.411 2.12812 21.5625 2.49375 21.5625 2.875V14.375C21.5625 14.7562 21.411 15.1219 21.1415 15.3915C20.8719 15.661 20.5062 15.8125 20.125 15.8125H6.34513C5.58269 15.8127 4.85154 16.1157 4.3125 16.6549L1.4375 19.5299V2.875C1.4375 2.49375 1.58895 2.12812 1.85853 1.85853C2.12812 1.58895 2.49375 1.4375 2.875 1.4375H20.125ZM2.875 0C2.1125 0 1.38124 0.302901 0.842068 0.842068C0.302901 1.38124 0 2.1125 0 2.875L0 21.2649C3.02089e-05 21.4072 0.0422518 21.5462 0.121321 21.6644C0.20039 21.7826 0.312753 21.8747 0.444187 21.929C0.575621 21.9834 0.720218 21.9975 0.859677 21.9696C0.999136 21.9417 1.12719 21.8731 1.22763 21.7724L5.32881 17.6712C5.59833 17.4016 5.96391 17.2501 6.34513 17.25H20.125C20.8875 17.25 21.6188 16.9471 22.1579 16.4079C22.6971 15.8688 23 15.1375 23 14.375V2.875C23 2.1125 22.6971 1.38124 22.1579 0.842068C21.6188 0.302901 20.8875 0 20.125 0L2.875 0Z" fill="white"/>
<path d="M7.1875 8.625C7.1875 9.00625 7.03605 9.37188 6.76647 9.64147C6.49688 9.91105 6.13125 10.0625 5.75 10.0625C5.36875 10.0625 5.00312 9.91105 4.73353 9.64147C4.46395 9.37188 4.3125 9.00625 4.3125 8.625C4.3125 8.24375 4.46395 7.87812 4.73353 7.60853C5.00312 7.33895 5.36875 7.1875 5.75 7.1875C6.13125 7.1875 6.49688 7.33895 6.76647 7.60853C7.03605 7.87812 7.1875 8.24375 7.1875 8.625ZM12.9375 8.625C12.9375 9.00625 12.786 9.37188 12.5165 9.64147C12.2469 9.91105 11.8812 10.0625 11.5 10.0625C11.1188 10.0625 10.7531 9.91105 10.4835 9.64147C10.214 9.37188 10.0625 9.00625 10.0625 8.625C10.0625 8.24375 10.214 7.87812 10.4835 7.60853C10.7531 7.33895 11.1188 7.1875 11.5 7.1875C11.8812 7.1875 12.2469 7.33895 12.5165 7.60853C12.786 7.87812 12.9375 8.24375 12.9375 8.625ZM18.6875 8.625C18.6875 9.00625 18.536 9.37188 18.2665 9.64147C17.9969 9.91105 17.6312 10.0625 17.25 10.0625C16.8688 10.0625 16.5031 9.91105 16.2335 9.64147C15.964 9.37188 15.8125 9.00625 15.8125 8.625C15.8125 8.24375 15.964 7.87812 16.2335 7.60853C16.5031 7.33895 16.8688 7.1875 17.25 7.1875C17.6312 7.1875 17.9969 7.33895 18.2665 7.60853C18.536 7.87812 18.6875 8.24375 18.6875 8.625Z" fill="white"/>
</svg>
