<svg width="18" height="18" viewBox="0 0 18 18" className='headerSteam' xmlns="http://www.w3.org/2000/svg">
<g clip-path="url(#clip0_47_4574)">
<path d="M0.370125 11.6246C0.93464 13.4701 2.07673 15.0856 3.62828 16.2333C5.17982 17.3811 7.05885 18.0003 8.98875 18C13.9657 18 18 13.9703 18 9C18 4.02975 13.9657 6.74757e-07 8.98987 6.74757e-07C6.70531 -0.000883106 4.50577 0.866429 2.83664 2.42632C1.16751 3.98621 0.153522 6.1221 0 8.4015L0.003375 8.40825L4.84538 10.3984C5.28208 10.1093 5.7993 9.96626 6.3225 9.99L8.5275 6.7905L8.52637 6.7455C8.52727 5.83803 8.88808 4.96797 9.52965 4.32619C10.1712 3.68441 11.0412 3.32332 11.9486 3.32213C12.8561 3.32332 13.726 3.68441 14.3676 4.32619C15.0092 4.96797 15.37 5.83803 15.3709 6.7455C15.3705 7.20149 15.2792 7.65284 15.1023 8.0731C14.9253 8.49336 14.6663 8.87409 14.3403 9.193C14.0144 9.5119 13.6281 9.76258 13.2041 9.93034C12.7801 10.0981 12.3269 10.1796 11.871 10.17L8.7165 12.42C8.7272 12.8368 8.63354 13.2496 8.44403 13.621C8.25452 13.9923 7.97518 14.3104 7.63142 14.5463C7.28765 14.7822 6.89037 14.9284 6.4757 14.9716C6.06104 15.0148 5.64214 14.9537 5.25712 14.7938C4.88759 14.6398 4.56055 14.3991 4.30365 14.0921C4.04674 13.785 3.86752 13.4207 3.78113 13.0298L0.37125 11.6246H0.370125Z"/>
<path d="M5.4765 14.2684C5.94521 14.4473 6.46518 14.4366 6.92614 14.2385C7.3871 14.0405 7.75278 13.6707 7.94565 13.2076C8.13852 12.7444 8.14339 12.2244 7.95925 11.7577C7.7751 11.291 7.41641 10.9144 6.95925 10.7077C6.50598 10.5186 5.99742 10.5106 5.53838 10.6852L6.68925 11.1622C6.86137 11.2339 7.01768 11.3387 7.14927 11.4708C7.28087 11.6029 7.38516 11.7596 7.45619 11.9319C7.52723 12.1043 7.56362 12.289 7.56329 12.4754C7.56296 12.6618 7.52591 12.8464 7.45425 13.0185C7.3826 13.1906 7.27775 13.3469 7.14569 13.4785C7.01362 13.6101 6.85693 13.7144 6.68456 13.7854C6.5122 13.8565 6.32752 13.8929 6.14109 13.8925C5.95466 13.8922 5.77012 13.8551 5.598 13.7835L4.48425 13.3222C4.68693 13.749 5.04039 14.0856 5.4765 14.2672V14.2684ZM9.66825 6.74549C9.66855 7.3504 9.90883 7.93048 10.3364 8.35843C10.7639 8.78638 11.3437 9.02722 11.9486 9.02812C12.5535 9.02722 13.1334 8.78638 13.5609 8.35843C13.9884 7.93048 14.2287 7.3504 14.229 6.74549C14.2281 6.14097 13.9876 5.56147 13.5601 5.13401C13.1327 4.70655 12.5531 4.46601 11.9486 4.46512C11.3441 4.46601 10.7646 4.70655 10.3371 5.13401C9.90969 5.56147 9.66915 6.14097 9.66825 6.74549ZM11.952 5.02762C12.1772 5.02777 12.4001 5.07226 12.608 5.15856C12.816 5.24486 13.0049 5.37127 13.164 5.53058C13.3231 5.68989 13.4493 5.87898 13.5353 6.08705C13.6213 6.29512 13.6655 6.51809 13.6654 6.74324C13.6652 6.96839 13.6207 7.19131 13.5344 7.39927C13.4481 7.60722 13.3217 7.79615 13.1624 7.95525C13.0031 8.11435 12.814 8.24052 12.6059 8.32654C12.3979 8.41257 12.1749 8.45677 11.9498 8.45662C11.495 8.45632 11.0591 8.2754 10.7377 7.95366C10.4164 7.63192 10.2361 7.19571 10.2364 6.74099C10.2367 6.28628 10.4176 5.85031 10.7393 5.52899C11.0611 5.20767 11.4973 5.02732 11.952 5.02762Z"/>
</g>
<defs>
<clipPath id="clip0_47_4574">
<rect width="18" height="18" fill="white"/>
</clipPath>
</defs>
</svg>
