<svg width="13" height="13" viewBox="0 0 13 13" xmlns="http://www.w3.org/2000/svg">
<path d="M0.249999 6.5L2.75 4V5.875H7.75V7.125H2.75V9M1.5 10.25C2.28706 11.2994 3.38435 12.0746 4.63645 12.4657C5.88855 12.8568 7.23197 12.8441 8.47642 12.4293C9.72087 12.0145 10.8033 11.2186 11.5703 10.1544C12.3373 9.09028 12.75 7.81177 12.75 6.5C12.75 5.18823 12.3373 3.90972 11.5703 2.84556C10.8033 1.7814 9.72087 0.985546 8.47642 0.570729C7.23197 0.155913 5.88855 0.143164 4.63645 0.53429C3.38435 0.925416 2.28706 1.70059 1.5 2.75H3.20625C3.92793 2.11354 4.81793 1.69884 5.76945 1.55566C6.72098 1.41248 7.69361 1.54691 8.57063 1.94281C9.44765 2.33871 10.1918 2.97927 10.7138 3.78762C11.2358 4.59596 11.5134 5.53776 11.5134 6.5C11.5134 7.46224 11.2358 8.40404 10.7138 9.21239C10.1918 10.0207 9.44765 10.6613 8.57063 11.0572C7.69361 11.4531 6.72098 11.5875 5.76945 11.4443C4.81793 11.3012 3.92793 10.8865 3.20625 10.25H1.5Z" fill="#FB0000"/>
</svg>
