<svg width="40" height="40" viewBox="0 0 40 40" fill="none" xmlns="http://www.w3.org/2000/svg">
<g clip-path="url(#clip0_154_3756)">
<path d="M36.6964 17.4469H3.30319V39.1272H36.6964V17.4469Z" fill="#CC7E05"/>
<path d="M23.1956 17.4469H16.8041V39.1272H23.1956V17.4469Z" fill="#AE723C"/>
<path d="M20.5163 17.4469H19.4842V39.1272H20.5163V17.4469Z" fill="white"/>
<path d="M31.3312 2.23111C29.5196 0.419465 26.5826 0.419465 24.7709 2.23111C23.4476 3.45556 20.6555 8.44736 20 10.1501H28.0551V10.1499C29.2409 10.149 30.4265 9.69603 31.3313 8.79134C33.1429 6.97978 33.1429 4.04275 31.3312 2.23111Z" fill="#DC9F68"/>
<path d="M31.3916 4.42204C30.0812 3.1118 27.9568 3.1118 26.6465 4.42204C25.6891 5.3079 23.6696 8.91837 23.1955 10.15H28.0548V10.1498C29.2407 10.1489 30.4262 9.69594 31.3311 8.79126C31.7766 8.34563 32.1121 7.8318 32.3384 7.28352C32.487 6.27024 32.1715 5.20204 31.3916 4.42204Z" fill="#AE723C"/>
<path d="M8.66859 2.23111C10.4802 0.419465 13.4173 0.419465 15.2288 2.23111C16.5523 3.45556 19.3444 8.44736 19.9998 10.1501H11.9448V10.1499C10.7589 10.149 9.57343 9.69603 8.66851 8.79134C6.85694 6.97978 6.85694 4.04275 8.66859 2.23111Z" fill="#DC9F68"/>
<path d="M8.60835 4.42204C9.91866 3.1118 12.043 3.1118 13.3534 4.42204C14.3107 5.3079 16.3303 8.91837 16.8043 10.15H11.9449V10.1498C10.7591 10.1489 9.57358 9.69594 8.66866 8.79126C8.22304 8.34563 7.88772 7.8318 7.66132 7.28352C7.5128 6.27024 7.82835 5.20204 8.60835 4.42204Z" fill="#AE723C"/>
<path d="M39.3533 10.1502H0.647186V17.4477H39.3533V10.1502Z" fill="#FFA314"/>
<path d="M23.1956 10.1502H16.8041V17.4477H23.1956V10.1502Z" fill="#DC9F68"/>
<path d="M20.5163 10.1502H19.4842V17.4477H20.5163V10.1502Z" fill="white"/>
<path d="M39.3528 9.5028H31.5145C31.608 9.42131 31.7002 9.33756 31.7887 9.24897C32.7872 8.25061 33.337 6.92319 33.337 5.51131C33.337 4.09936 32.7872 2.77194 31.7887 1.7735C30.7903 0.775064 29.4628 0.22522 28.0509 0.22522C26.6432 0.22522 25.3194 0.771939 24.322 1.76483C23.1587 2.84983 21.103 6.35631 19.9999 8.58545C18.8967 6.35631 16.8411 2.84983 15.6778 1.76483C14.6804 0.77186 13.3566 0.22522 11.9487 0.22522C10.5368 0.22522 9.20937 0.775064 8.21094 1.7735C7.2125 2.77194 6.66266 4.09936 6.66266 5.51131C6.66266 6.92319 7.21258 8.25069 8.21102 9.24897C8.29961 9.33756 8.39172 9.42139 8.48531 9.5028H0.647188C0.289766 9.5028 0 9.79256 0 10.15V17.4473C0 17.8047 0.289766 18.0944 0.647188 18.0944H2.65633V39.1276C2.65633 39.4851 2.94609 39.7748 3.30352 39.7748H36.6963C37.0537 39.7748 37.3435 39.4851 37.3435 39.1276V18.0944H39.3529C39.7103 18.0944 40.0001 17.8047 40.0001 17.4473V10.15C40 9.79256 39.7102 9.5028 39.3528 9.5028ZM31.7067 7.11647C31.5098 7.56459 31.2301 7.97709 30.8735 8.33358C30.1204 9.0867 29.1191 9.50186 28.0545 9.50256C28.0534 9.50256 28.0523 9.50272 28.0512 9.50272H24.1983C24.968 7.94991 26.4145 5.51827 27.0859 4.89702C27.092 4.89131 27.0981 4.88553 27.104 4.87967C28.1599 3.82374 29.878 3.82381 30.9338 4.87967C31.5277 5.4735 31.8063 6.28514 31.7067 7.11647ZM8.29305 7.11663C8.19344 6.28522 8.47219 5.4735 9.06594 4.87967C10.1218 3.82389 11.8399 3.82381 12.8957 4.87967C12.9016 4.88553 12.9077 4.89131 12.9138 4.89702C13.5852 5.51827 15.0317 7.94983 15.8015 9.50272H11.9486C11.9475 9.50272 11.9464 9.50256 11.9453 9.50256C10.8805 9.50178 9.87938 9.08663 9.12625 8.33358C8.76969 7.97709 8.49008 7.56467 8.29305 7.11663ZM16.1571 38.4805H3.9507V18.0944H16.157V38.4805H16.1571ZM16.1571 16.8001H1.29438V10.7972H16.1572V16.8001H16.1571ZM13.8023 3.95584C12.3062 2.46858 9.91836 2.41022 8.35102 3.77866C8.54359 3.37959 8.80359 3.01124 9.12617 2.68866C9.88016 1.93475 10.8825 1.51952 11.9487 1.51952C13.0148 1.51952 14.0172 1.93475 14.7711 2.68866C14.777 2.69459 14.7831 2.70038 14.7892 2.70608C15.8607 3.69741 18.0181 7.43178 19.0075 9.5028H17.2324C16.5442 7.98077 14.7633 4.85475 13.8023 3.95584ZM22.5484 38.4805H17.4514V18.0944H22.5484V38.4805ZM22.5484 16.8001H17.4514V10.7972H22.5484V16.8001ZM20.9921 9.5028C21.9815 7.43186 24.1389 3.69741 25.2104 2.70608C25.2165 2.70038 25.2227 2.69459 25.2285 2.68866C25.9824 1.93475 26.9848 1.51952 28.0509 1.51952C29.1171 1.51952 30.1195 1.93475 30.8734 2.68866C31.196 3.01124 31.456 3.37959 31.6486 3.77866C30.0812 2.41022 27.6935 2.46858 26.1973 3.95584C25.2363 4.85483 23.4554 7.98084 22.7673 9.5028H20.9921ZM36.0491 38.4805H23.8427V18.0944H36.049V38.4805H36.0491ZM38.7056 16.8001H23.8427V10.7972H38.7055V16.8001H38.7056Z" fill="black"/>
</g>
<defs>
<clipPath id="clip0_154_3756">
<rect width="40" height="40" fill="white"/>
</clipPath>
</defs>
</svg>
