<svg width="15" height="13" viewBox="0 0 15 13" fill="none" xmlns="http://www.w3.org/2000/svg">
<path d="M10.8602 7.29557L5.55773 1.99307L6.68273 0.868069C7.05773 0.448069 8.40773 0.515569 9.31523 1.10807C10.2227 1.70807 10.3877 2.06807 11.4977 2.68307C12.3827 3.16307 13.3352 3.62807 14.8352 3.32057L10.8602 7.29557ZM10.3277 7.82807L5.02523 2.52557L3.69773 3.85307C3.6282 3.92245 3.57304 4.00487 3.5354 4.0956C3.49777 4.18633 3.47839 4.28359 3.47839 4.38182C3.47839 4.48005 3.49777 4.57731 3.5354 4.66804C3.57304 4.75877 3.6282 4.84118 3.69773 4.91057L4.49273 5.70557C4.78523 5.99807 4.78523 6.47807 4.49273 6.77057C4.04273 7.22057 3.42023 7.60307 2.83523 8.03807C2.57273 8.23307 2.31023 8.43557 2.07773 8.66807C1.07273 9.67307 0.300227 11.0606 1.05023 11.8031C1.79273 12.5531 3.18023 11.7806 4.18523 10.7831C4.41773 10.5506 4.62023 10.2881 4.82273 10.0181C5.25023 9.43307 5.63273 8.81057 6.09023 8.36057C6.15961 8.29104 6.24203 8.23588 6.33276 8.19825C6.42349 8.16061 6.52075 8.14124 6.61898 8.14124C6.7172 8.14124 6.81447 8.16061 6.9052 8.19825C6.99593 8.23588 7.07834 8.29104 7.14773 8.36057L7.94273 9.15557C8.23523 9.44807 8.70773 9.44807 9.00023 9.15557L10.3277 7.82807Z" fill="white"/>
</svg>
