<svg width="40" height="40" viewBox="0 0 40 40" fill="none" xmlns="http://www.w3.org/2000/svg">
<path d="M38.7234 2.55319H1.27657V8.93616H38.7234V2.55319Z" fill="#FFA314"/>
<path d="M24.0426 29.7873H25.1064V26.3831H14.8936V29.7873H21.4894C21.842 29.7873 22.1277 30.073 22.1277 30.4256H23.4042C23.4042 30.073 23.6899 29.7873 24.0426 29.7873Z" fill="white"/>
<path d="M12.3404 32.3404H27.6595V23.8298H12.3404V32.3404ZM13.617 25.7447C13.617 25.3921 13.9027 25.1064 14.2553 25.1064H25.7447C26.0973 25.1064 26.383 25.3921 26.383 25.7447V30.4256C26.383 30.7781 26.0973 31.0638 25.7447 31.0638H24.0426C23.69 31.0638 23.4043 30.7781 23.4043 30.4256H22.1277C22.1277 30.7781 21.842 31.0638 21.4895 31.0638H14.2554C13.9028 31.0638 13.6171 30.7781 13.6171 30.4256V25.7447H13.617Z" fill="#6DA8D6"/>
<path d="M25.7447 13.617H14.2553C13.1995 13.617 12.3404 14.4761 12.3404 15.532C12.3404 16.5878 13.1995 17.4469 14.2553 17.4469H25.7447C26.8006 17.4469 27.6596 16.5878 27.6596 15.532C27.6596 14.4761 26.8006 13.617 25.7447 13.617Z" fill="#B81034"/>
<path d="M3.82977 10.2127V37.4468H36.1702V10.2127H3.82977ZM25.7447 18.7234H14.2553C12.4955 18.7234 11.0638 17.2918 11.0638 15.532C11.0638 13.7721 12.4955 12.3405 14.2553 12.3405H25.7447C27.5045 12.3405 28.9362 13.7721 28.9362 15.532C28.9362 17.2918 27.5045 18.7234 25.7447 18.7234Z" fill="#CC7E05"/>
<path d="M39.3617 1.27655H0.638281C0.285703 1.27655 0 1.56225 0 1.91483V9.57444C0 9.92702 0.285703 10.2127 0.638281 10.2127H2.5532V38.0851C2.5532 38.4376 2.83891 38.7233 3.19148 38.7233H36.8085C37.1611 38.7233 37.4468 38.4376 37.4468 38.0851V10.2127H39.3617C39.7143 10.2127 40 9.92702 40 9.57444V1.91491C40 1.56225 39.7143 1.27655 39.3617 1.27655ZM38.7234 8.93616H1.27656V2.55319H38.7234V8.93616ZM3.82977 37.4468V10.2127H36.1702V37.4468H3.82977Z" fill="#082947"/>
<path d="M25.7447 12.3404H14.2553C12.4955 12.3404 11.0638 13.772 11.0638 15.5319C11.0638 17.2917 12.4955 18.7234 14.2553 18.7234H25.7447C27.5045 18.7234 28.9362 17.2917 28.9362 15.5319C28.9362 13.772 27.5045 12.3404 25.7447 12.3404ZM25.7447 17.4468H14.2553C13.1995 17.4468 12.3404 16.5877 12.3404 15.5319C12.3404 14.476 13.1995 13.617 14.2553 13.617H25.7447C26.8005 13.617 27.6596 14.476 27.6596 15.5319C27.6596 16.5877 26.8005 17.4468 25.7447 17.4468Z" fill="#082947"/>
</svg>
