<svg width="24" height="24" viewBox="0 0 26 27" fill="none" xmlns="http://www.w3.org/2000/svg" className="clip">
<path d="M15.0586 11.4423C13.9664 10.3506 12.4854 9.7373 10.9412 9.7373C9.39704 9.7373 7.91605 10.3506 6.82391 11.4423L2.70524 15.5596C1.61308 16.6518 0.999512 18.133 0.999512 19.6776C0.999512 21.2221 1.61308 22.7034 2.70524 23.7956C3.7974 24.8878 5.27869 25.5013 6.82324 25.5013C8.36779 25.5013 9.84908 24.8878 10.9412 23.7956L12.9999 21.7369" stroke="white" stroke-width="1.66667" stroke-linecap="round" stroke-linejoin="round"/>
<path d="M10.9414 15.5591C12.0335 16.6508 13.5145 17.264 15.0587 17.264C16.6029 17.264 18.0839 16.6508 19.1761 15.5591L23.2947 11.4417C24.3869 10.3496 25.0005 8.86828 25.0005 7.32373C25.0005 5.77918 24.3869 4.29789 23.2947 3.20573C22.2026 2.11357 20.7213 1.5 19.1767 1.5C17.6322 1.5 16.1509 2.11357 15.0587 3.20573L13.0001 5.2644" stroke="white" stroke-width="1.66667" stroke-linecap="round" stroke-linejoin="round"/>
</svg>
