<svg width="18" height="18" viewBox="0 0 18 18" fill="none" xmlns="http://www.w3.org/2000/svg">
<path fill-rule="evenodd" clip-rule="evenodd" d="M17.5664 1.56663C17.6408 1.49225 17.6998 1.40395 17.74 1.30676C17.7803 1.20958 17.801 1.10542 17.801 1.00023C17.801 0.895039 17.7803 0.790879 17.74 0.693696C17.6998 0.596513 17.6408 0.50821 17.5664 0.433829C17.492 0.359448 17.4037 0.300447 17.3065 0.260192C17.2093 0.219938 17.1052 0.199219 17 0.199219C16.8948 0.199219 16.7906 0.219938 16.6935 0.260192C16.5963 0.300447 16.508 0.359448 16.4336 0.433829L8.99999 7.86903L1.56639 0.433829C1.492 0.359448 1.4037 0.300447 1.30652 0.260192C1.20934 0.219938 1.10518 0.199219 0.999985 0.199219C0.894795 0.199219 0.790635 0.219938 0.693452 0.260192C0.596269 0.300447 0.507966 0.359448 0.433585 0.433829C0.359204 0.50821 0.300203 0.596513 0.259948 0.693696C0.219693 0.790879 0.198975 0.895039 0.198975 1.00023C0.198975 1.10542 0.219693 1.20958 0.259948 1.30676C0.300203 1.40395 0.359204 1.49225 0.433585 1.56663L7.86879 9.00023L0.433585 16.4338C0.283366 16.584 0.198975 16.7878 0.198975 17.0002C0.198975 17.2127 0.283366 17.4164 0.433585 17.5666C0.583804 17.7168 0.787544 17.8012 0.999985 17.8012C1.21243 17.8012 1.41617 17.7168 1.56639 17.5666L8.99999 10.1314L16.4336 17.5666C16.5838 17.7168 16.7875 17.8012 17 17.8012C17.2124 17.8012 17.4162 17.7168 17.5664 17.5666C17.7166 17.4164 17.801 17.2127 17.801 17.0002C17.801 16.7878 17.7166 16.584 17.5664 16.4338L10.1312 9.00023L17.5664 1.56663Z" fill="white"/>
</svg>
