<svg width="15" height="15" viewBox="0 0 15 15" fill="none" xmlns="http://www.w3.org/2000/svg">
<path d="M6.87563 6.25H8.12563V9.375H6.87563V6.25ZM6.875 10H8.125V11.25H6.875V10Z" fill="#FB0000"/>
<path d="M8.60509 2.62469C8.38759 2.21531 7.96384 1.96094 7.50009 1.96094C7.03634 1.96094 6.61259 2.21531 6.39509 2.62531L1.80884 11.2897C1.70707 11.48 1.65666 11.6935 1.66258 11.9092C1.66849 12.1249 1.73054 12.3353 1.84259 12.5197C1.95303 12.7049 2.10986 12.8582 2.29762 12.9643C2.48538 13.0704 2.69756 13.1257 2.91322 13.1247H12.087C12.5295 13.1247 12.9301 12.8984 13.1582 12.5197C13.2701 12.3352 13.332 12.1248 13.3379 11.9092C13.3439 11.6935 13.2936 11.48 13.192 11.2897L8.60509 2.62469ZM2.91322 11.8747L7.50009 3.21031L12.0901 11.8747H2.91322Z" fill="#FB0000"/>
</svg>
