<svg width="24" height="24" viewBox="0 0 24 24" xmlns="http://www.w3.org/2000/svg" className='exit'>
<g clip-path="url(#clip0_90_5813)">
<path d="M23.5305 10.6393C23.5746 10.5329 23.5746 10.4129 23.5305 10.306C23.5082 10.2523 23.4759 10.2038 23.4358 10.1633L18.1999 4.92777C18.0292 4.75715 17.7535 4.75715 17.5828 4.92777C17.4122 5.09839 17.4122 5.37417 17.5828 5.54479L22.0743 10.0363H12.655C12.4137 10.0363 12.2186 10.2313 12.2186 10.4726C12.2186 10.714 12.4137 10.909 12.655 10.909H22.0743L17.5828 15.4005C17.4122 15.5711 17.4122 15.8469 17.5828 16.0175C17.6679 16.1026 17.7796 16.1454 17.8914 16.1454C18.0031 16.1454 18.1148 16.1026 18.1999 16.0175L23.4358 10.7816C23.4759 10.7414 23.5082 10.693 23.5305 10.6393Z"/>
<path d="M15.7096 12.6545C15.4682 12.6545 15.2732 12.8496 15.2732 13.0909V20.0727H10.9096V3.49091C10.9096 3.30065 10.7865 3.13265 10.6054 3.07505L3.68381 0.872727H15.2732V7.85455C15.2732 8.09585 15.4682 8.29091 15.7096 8.29091C15.9509 8.29091 16.1459 8.09585 16.1459 7.85455V0.436364C16.1459 0.195055 15.9509 0 15.7096 0H0.873192C0.859229 0 0.84701 0.00654545 0.833483 0.00785455C0.809047 0.0100364 0.787665 0.0157091 0.764538 0.0218182C0.72352 0.0327273 0.686865 0.0475636 0.65152 0.0689455C0.640174 0.0759273 0.626647 0.0759273 0.615738 0.0837818C0.60221 0.0938182 0.591738 0.106473 0.579519 0.117382C0.572101 0.124364 0.564247 0.130473 0.557265 0.137891C0.524101 0.173673 0.497047 0.213382 0.476974 0.257018C0.473047 0.265745 0.470865 0.274473 0.467374 0.2832C0.449047 0.332073 0.436829 0.383127 0.436829 0.436364V20.5091C0.436829 20.5636 0.449483 20.6151 0.468247 20.664C0.474356 20.6801 0.48352 20.6937 0.491374 20.7089C0.50752 20.7399 0.525847 20.7683 0.548974 20.7945C0.561629 20.8084 0.574283 20.8211 0.588247 20.8337C0.613556 20.856 0.64192 20.8743 0.672465 20.8905C0.68861 20.8992 0.703447 20.9084 0.720901 20.9149C0.728319 20.9175 0.733992 20.9228 0.74141 20.9254L10.3414 23.9799C10.3842 23.993 10.4287 24 10.4732 24C10.5648 24 10.6552 23.9712 10.7306 23.9162C10.8432 23.8342 10.9096 23.7033 10.9096 23.5636V20.9455H15.7096C15.9509 20.9455 16.1459 20.7504 16.1459 20.5091V13.0909C16.1459 12.8496 15.9504 12.6545 15.7096 12.6545ZM10.0368 22.9671L1.30956 20.1901V1.03287L10.0368 3.80989V22.9671Z"/>
</g>
<defs>
<clipPath id="clip0_90_5813">
<rect width="24" height="24" fill="white"/>
</clipPath>
</defs>
</svg>
