<svg width="67" height="67" viewBox="0 0 67 67" fill="none" xmlns="http://www.w3.org/2000/svg">
<g clip-path="url(#clip0_32_2140)">
<path d="M53.5547 37.5787C52.6332 37.5787 51.7253 37.2264 51.0207 36.5217C41.3457 26.8603 25.6273 26.8603 15.9523 36.5217C14.5566 37.9174 12.2801 37.9174 10.8844 36.5217C9.48872 35.126 9.48872 32.8496 10.8844 31.4539C23.3508 18.9875 43.6222 18.9875 56.0886 31.4539C57.4843 32.8496 57.4843 35.126 56.0886 36.5217C55.384 37.2264 54.4625 37.5787 53.5547 37.5787Z" fill="#B81034"/>
<path d="M43.8525 47.2672C42.9311 47.2672 42.0232 46.9149 41.3186 46.2103C39.2318 44.1235 36.4404 42.9718 33.4864 42.9718C30.5324 42.9718 27.7411 44.1235 25.6543 46.2103C24.2586 47.606 21.9821 47.606 20.5864 46.2103C19.1907 44.8146 19.1907 42.5381 20.5864 41.1424C24.0282 37.7006 28.6083 35.8036 33.4864 35.8036C38.3646 35.8036 42.9446 37.7006 46.3864 41.156C47.7821 42.5517 47.7821 44.8282 46.3864 46.2239C45.6954 46.9149 44.7739 47.2672 43.8525 47.2672Z" fill="#B81034"/>
<path d="M33.4864 58.8393C36.1282 58.8393 38.2697 56.6977 38.2697 54.056C38.2697 51.4143 36.1282 49.2727 33.4864 49.2727C30.8447 49.2727 28.7031 51.4143 28.7031 54.056C28.7031 56.6977 30.8447 58.8393 33.4864 58.8393Z" fill="#B81034"/>
<path d="M63.4058 27.7275C62.4843 27.7275 61.5765 27.3752 60.8718 26.6706C45.7631 11.5754 21.2098 11.5754 6.11462 26.6706C4.71893 28.0663 2.44246 28.0663 1.04677 26.6706C-0.348923 25.2749 -0.348923 22.9984 1.04677 21.6027C9.71903 12.9305 21.2369 8.16074 33.5 8.16074C45.7631 8.16074 57.281 12.9305 65.9532 21.6027C67.3489 22.9984 67.3489 25.2749 65.9532 26.6706C65.2351 27.3752 64.3136 27.7275 63.4058 27.7275Z" fill="#B81034"/>
</g>
<defs>
<clipPath id="clip0_32_2140">
<rect width="67" height="67" fill="white"/>
</clipPath>
</defs>
</svg>
