<svg width="67" height="67" viewBox="0 0 67 67" fill="none" xmlns="http://www.w3.org/2000/svg">
<path d="M53.6156 47.8927L42.9481 42.5595C41.942 42.0559 41.3167 41.0442 41.3167 39.9186V36.1432C41.5724 35.8305 41.8415 35.4743 42.1195 35.0812C43.5031 33.127 44.6119 30.9518 45.4182 28.6056C46.9938 27.8832 48.0167 26.3254 48.0167 24.5667V20.1C48.0167 19.0247 47.6147 17.9828 46.9 17.1688V11.2292C46.9625 10.615 47.2082 6.95907 44.5639 3.94295C42.2703 1.3266 38.5484 0 33.5 0C28.4515 0 24.7297 1.3266 22.436 3.94183C19.7918 6.95795 20.0375 10.615 20.1 11.2292V17.1688C19.3853 17.9828 18.9833 19.0247 18.9833 20.1V24.5667C18.9833 25.9256 19.6008 27.1931 20.655 28.0384C21.6778 32.0885 23.8185 35.1404 24.5667 36.1197V39.8148C24.5667 40.8957 23.977 41.8873 23.029 42.4054L13.0672 47.8391C9.82777 49.6068 7.81665 52.9948 7.81665 56.6842V60.3C7.81665 65.5997 24.6169 67 33.5 67C42.3831 67 59.1833 65.5997 59.1833 60.3V56.902C59.1833 53.0629 57.0494 49.6101 53.6156 47.8927Z" fill="#B81034"/>
</svg>
