<svg width="67" height="67" viewBox="0 0 67 67" fill="none" xmlns="http://www.w3.org/2000/svg">
<path d="M51.3178 17.8175C51.3178 7.99291 43.3249 0 33.5003 0C23.6757 0 15.6826 7.99291 15.6826 17.8175C15.6826 25.9832 21.2044 32.8828 28.7101 34.9803V61.3495C28.7101 62.0833 29.0705 63.0082 29.567 63.5486L32.2125 66.4282C32.5464 66.7915 33.0156 66.9998 33.5003 66.9998C33.985 66.9998 34.4541 66.7915 34.7881 66.4282L37.4336 63.5486C37.9301 63.0082 38.2905 62.0833 38.2905 61.3495V60.003L40.9502 58.2964C41.4176 57.9964 41.6857 57.5374 41.6857 57.0371C41.6857 56.5369 41.4175 56.0779 40.95 55.7781L38.2905 54.0715V54.0337L40.9502 52.3271C41.4176 52.0271 41.6857 51.5681 41.6857 51.0678C41.6857 50.5676 41.4175 50.1086 40.95 49.8088L38.2905 48.1022V48.0644L40.9502 46.3578C41.4176 46.0578 41.6857 45.5988 41.6857 45.0987C41.6857 44.5983 41.4175 44.1393 40.95 43.8393L38.2905 42.1327V34.9803C45.7958 32.8828 51.3178 25.9834 51.3178 17.8175ZM33.5001 19.1293C29.6751 19.1293 26.5744 16.0285 26.5744 12.2036C26.5744 8.37878 29.6753 5.27793 33.5001 5.27793C37.3249 5.27793 40.4258 8.37878 40.4258 12.2036C40.4258 16.0285 37.3251 19.1293 33.5001 19.1293Z" fill="#B81034"/>
</svg>
