<svg width="15" height="15" viewBox="0 0 15 15" className='logs' xmlns="http://www.w3.org/2000/svg">
<path d="M9.82323 1.54415C9.84133 1.4853 9.84766 1.42346 9.84186 1.36217C9.83606 1.30087 9.81824 1.24132 9.78943 1.18691C9.76061 1.1325 9.72136 1.0843 9.67392 1.04506C9.62647 1.00582 9.57177 0.97631 9.51292 0.958212C9.45407 0.940114 9.39223 0.933785 9.33094 0.939585C9.26964 0.945385 9.21009 0.963202 9.15568 0.992017C9.10127 1.02083 9.05307 1.06008 9.01383 1.10753C8.97459 1.15497 8.94508 1.20968 8.92698 1.26852L5.17698 13.456C5.14043 13.5749 5.15259 13.7034 5.21078 13.8133C5.26898 13.9231 5.36844 14.0054 5.48729 14.042C5.60614 14.0785 5.73464 14.0664 5.84453 14.0082C5.95441 13.95 6.03668 13.8505 6.07323 13.7317L9.82323 1.54415ZM4.55073 3.88696C4.59438 3.9305 4.62902 3.98223 4.65265 4.03918C4.67628 4.09613 4.68844 4.15718 4.68844 4.21884C4.68844 4.28049 4.67628 4.34155 4.65265 4.39849C4.62902 4.45544 4.59438 4.50717 4.55073 4.55071L1.60042 7.50009L4.55073 10.4495C4.63875 10.5375 4.6882 10.6569 4.6882 10.7813C4.6882 10.9058 4.63875 11.0252 4.55073 11.1132C4.46271 11.2012 4.34333 11.2507 4.21886 11.2507C4.09438 11.2507 3.975 11.2012 3.88698 11.1132L0.605731 7.83196C0.562077 7.78842 0.527444 7.73669 0.503812 7.67974C0.480181 7.62279 0.468018 7.56174 0.468018 7.50009C0.468018 7.43843 0.480181 7.37738 0.503812 7.32043C0.527444 7.26348 0.562077 7.21175 0.605731 7.16821L3.88698 3.88696C3.93052 3.84331 3.98225 3.80868 4.0392 3.78504C4.09615 3.76141 4.1572 3.74925 4.21886 3.74925C4.28051 3.74925 4.34156 3.76141 4.39851 3.78504C4.45546 3.80868 4.50719 3.84331 4.55073 3.88696ZM10.4495 3.88696C10.4058 3.9305 10.3712 3.98223 10.3476 4.03918C10.3239 4.09613 10.3118 4.15718 10.3118 4.21884C10.3118 4.28049 10.3239 4.34155 10.3476 4.39849C10.3712 4.45544 10.4058 4.50717 10.4495 4.55071L13.3998 7.50009L10.4495 10.4495C10.4059 10.493 10.3713 10.5448 10.3477 10.6017C10.3242 10.6587 10.312 10.7197 10.312 10.7813C10.312 10.843 10.3242 10.904 10.3477 10.9609C10.3713 11.0179 10.4059 11.0696 10.4495 11.1132C10.4931 11.1568 10.5448 11.1914 10.6017 11.215C10.6587 11.2385 10.7197 11.2507 10.7814 11.2507C10.843 11.2507 10.904 11.2385 10.961 11.215C11.0179 11.1914 11.0696 11.1568 11.1132 11.1132L14.3945 7.83196C14.4381 7.78842 14.4728 7.73669 14.4964 7.67974C14.52 7.62279 14.5322 7.56174 14.5322 7.50009C14.5322 7.43843 14.52 7.37738 14.4964 7.32043C14.4728 7.26348 14.4381 7.21175 14.3945 7.16821L11.1132 3.88696C11.0697 3.84331 11.018 3.80868 10.961 3.78504C10.9041 3.76141 10.843 3.74925 10.7814 3.74925C10.7197 3.74925 10.6586 3.76141 10.6017 3.78504C10.5448 3.80868 10.493 3.84331 10.4495 3.88696Z"/>
</svg>
