<svg width="15" height="15" viewBox="0 0 15 15" className='money' xmlns="http://www.w3.org/2000/svg">
<path d="M12.3349 5.77087C12.1792 5.49841 11.9767 5.25173 11.7388 5.02959C12.7558 4.88983 13.717 4.65004 14.5 4.29159V4.6875C14.5 4.74785 14.4342 4.95328 13.9438 5.22206C13.5592 5.43283 13.0113 5.62428 12.3349 5.77087ZM0.5 13.125V12.7285C1.04624 12.9786 1.67399 13.1689 2.33709 13.3085C3.35649 13.523 4.49547 13.625 5.625 13.625C6.75453 13.625 7.89351 13.523 8.91291 13.3085C9.57601 13.1689 10.2038 12.9786 10.75 12.7285V13.125C10.75 13.1644 10.7264 13.2819 10.4984 13.4615C10.2763 13.6365 9.92383 13.816 9.44389 13.976C8.48923 14.2943 7.13885 14.5 5.625 14.5C4.11115 14.5 2.76077 14.2943 1.80611 13.976C1.32617 13.816 0.973742 13.6365 0.751573 13.4615C0.523626 13.2819 0.5 13.1644 0.5 13.125ZM14.5 1.875C14.5 1.91441 14.4764 2.03193 14.2484 2.21147C14.0263 2.38645 13.6738 2.56595 13.1939 2.72599C12.2392 3.04432 10.8888 3.25 9.375 3.25C7.86115 3.25 6.51077 3.04432 5.55611 2.72599C5.07617 2.56595 4.72374 2.38645 4.50157 2.21147C4.27363 2.03193 4.25 1.91441 4.25 1.875C4.25 1.83559 4.27363 1.71807 4.50157 1.53853C4.72374 1.36355 5.07617 1.18405 5.55611 1.02401C6.51077 0.705675 7.86115 0.5 9.375 0.5C10.8888 0.5 12.2392 0.705675 13.1939 1.02401C13.6738 1.18405 14.0263 1.36355 14.2484 1.53853C14.4764 1.71807 14.5 1.83559 14.5 1.875ZM0.5 10.3125V9.72764C1.87046 10.4629 3.78577 10.8125 5.625 10.8125C7.46423 10.8125 9.37954 10.4629 10.75 9.72764V10.3125C10.75 10.3519 10.7264 10.4694 10.4984 10.649C10.2763 10.824 9.92383 11.0035 9.44389 11.1635C8.48923 11.4818 7.13885 11.6875 5.625 11.6875C4.11115 11.6875 2.76077 11.4818 1.80611 11.1635C1.32617 11.0035 0.973742 10.824 0.751573 10.649C0.523626 10.4694 0.5 10.3519 0.5 10.3125ZM14.5 7.5C14.5 7.55773 14.4401 7.75352 13.9776 8.01448C13.6597 8.19385 13.2227 8.36043 12.6875 8.49859V7.67185C13.3418 7.53359 13.9609 7.34763 14.5 7.10253V7.5ZM0.5 7.03125C0.5 6.88172 0.570611 6.69406 0.793051 6.47498C1.01726 6.25416 1.36733 6.03231 1.84021 5.83534C2.78378 5.4423 4.12177 5.1875 5.625 5.1875C7.12823 5.1875 8.46622 5.4423 9.40979 5.83534C9.88267 6.03231 10.2327 6.25416 10.4569 6.47498C10.6794 6.69406 10.75 6.88172 10.75 7.03125C10.75 7.18078 10.6794 7.36844 10.4569 7.58752C10.2327 7.80834 9.88267 8.03019 9.40979 8.22716C8.46622 8.6202 7.12823 8.875 5.625 8.875C4.12177 8.875 2.78378 8.6202 1.84021 8.22716C1.36733 8.03019 1.01726 7.80834 0.793051 7.58752C0.570611 7.36844 0.5 7.18078 0.5 7.03125Z" />
</svg>
