<svg width="9" height="13" viewBox="0 0 9 13" className='promocode' xmlns="http://www.w3.org/2000/svg">
<path d="M6.6405 6.3905C6.71092 6.32009 6.75047 6.22458 6.75047 6.125C6.75047 6.02542 6.71092 5.92991 6.6405 5.8595C6.57009 5.78908 6.47458 5.74953 6.375 5.74953C6.27542 5.74953 6.17991 5.78908 6.1095 5.8595L3.75 8.21975L2.8905 7.3595C2.85563 7.32463 2.81424 7.29698 2.76869 7.27811C2.72313 7.25924 2.67431 7.24953 2.625 7.24953C2.57569 7.24953 2.52687 7.25924 2.48131 7.27811C2.43576 7.29698 2.39437 7.32463 2.3595 7.3595C2.32463 7.39437 2.29698 7.43576 2.27811 7.48131C2.25924 7.52687 2.24953 7.57569 2.24953 7.625C2.24953 7.67431 2.25924 7.72313 2.27811 7.76869C2.29698 7.81424 2.32463 7.85563 2.3595 7.8905L3.4845 9.0155C3.51933 9.05042 3.56072 9.07813 3.60628 9.09703C3.65183 9.11594 3.70067 9.12567 3.75 9.12567C3.79933 9.12567 3.84817 9.11594 3.89372 9.09703C3.93928 9.07813 3.98067 9.05042 4.0155 9.0155L6.6405 6.3905ZM3.375 0.5C3.14226 0.499878 2.9152 0.571946 2.72513 0.706271C2.53506 0.840596 2.39133 1.03057 2.31375 1.25H1.125C0.826631 1.25 0.540483 1.36853 0.329505 1.57951C0.118526 1.79048 0 2.07663 0 2.375V11.375C0 11.6734 0.118526 11.9595 0.329505 12.1705C0.540483 12.3815 0.826631 12.5 1.125 12.5H7.875C8.17337 12.5 8.45952 12.3815 8.6705 12.1705C8.88147 11.9595 9 11.6734 9 11.375V2.375C9 2.07663 8.88147 1.79048 8.6705 1.57951C8.45952 1.36853 8.17337 1.25 7.875 1.25H6.68625C6.60867 1.03057 6.46494 0.840596 6.27487 0.706271C6.0848 0.571946 5.85774 0.499878 5.625 0.5H3.375ZM3 1.625C3 1.52554 3.03951 1.43016 3.10983 1.35984C3.18016 1.28951 3.27554 1.25 3.375 1.25H5.625C5.72446 1.25 5.81984 1.28951 5.89017 1.35984C5.96049 1.43016 6 1.52554 6 1.625C6 1.72446 5.96049 1.81984 5.89017 1.89017C5.81984 1.96049 5.72446 2 5.625 2H3.375C3.27554 2 3.18016 1.96049 3.10983 1.89017C3.03951 1.81984 3 1.72446 3 1.625ZM1.125 2H2.31375C2.39133 2.21943 2.53506 2.4094 2.72513 2.54373C2.9152 2.67805 3.14226 2.75012 3.375 2.75H5.625C5.85774 2.75012 6.0848 2.67805 6.27487 2.54373C6.46494 2.4094 6.60867 2.21943 6.68625 2H7.875C7.97446 2 8.06984 2.03951 8.14017 2.10984C8.21049 2.18016 8.25 2.27554 8.25 2.375V11.375C8.25 11.4745 8.21049 11.5698 8.14017 11.6402C8.06984 11.7105 7.97446 11.75 7.875 11.75H1.125C1.02554 11.75 0.930161 11.7105 0.859835 11.6402C0.789509 11.5698 0.75 11.4745 0.75 11.375V2.375C0.75 2.27554 0.789509 2.18016 0.859835 2.10984C0.930161 2.03951 1.02554 2 1.125 2Z"/>
</svg>
