<svg width="22" height="22" viewBox="0 0 22 22" fill="none" xmlns="http://www.w3.org/2000/svg">
<path d="M14.1398 10.8386C14.2431 10.7353 14.3011 10.5953 14.3011 10.4492C14.3011 10.3032 14.2431 10.1631 14.1398 10.0598C14.0365 9.95654 13.8964 9.89852 13.7504 9.89852C13.6043 9.89852 13.4643 9.95654 13.361 10.0598L9.90039 13.5215L8.63979 12.2598C8.58865 12.2087 8.52795 12.1681 8.46113 12.1404C8.39432 12.1128 8.32271 12.0985 8.25039 12.0985C8.17807 12.0985 8.10646 12.1128 8.03965 12.1404C7.97284 12.1681 7.91213 12.2087 7.86099 12.2598C7.80985 12.311 7.76929 12.3717 7.74161 12.4385C7.71394 12.5053 7.6997 12.5769 7.6997 12.6492C7.6997 12.7215 7.71394 12.7931 7.74161 12.86C7.76929 12.9268 7.80985 12.9875 7.86099 13.0386L9.51099 14.6886C9.56208 14.7398 9.62277 14.7805 9.68959 14.8082C9.75641 14.8359 9.82805 14.8502 9.90039 14.8502C9.97273 14.8502 10.0444 14.8359 10.1112 14.8082C10.178 14.7805 10.2387 14.7398 10.2898 14.6886L14.1398 10.8386ZM9.35039 2.19922C9.00903 2.19904 8.67602 2.30474 8.39725 2.50175C8.11848 2.69876 7.90768 2.97738 7.79389 3.29922H6.05039C5.61278 3.29922 5.1931 3.47306 4.88366 3.78249C4.57423 4.09193 4.40039 4.51161 4.40039 4.94922V18.1492C4.40039 18.5868 4.57423 19.0065 4.88366 19.3159C5.1931 19.6254 5.61278 19.7992 6.05039 19.7992H15.9504C16.388 19.7992 16.8077 19.6254 17.1171 19.3159C17.4266 19.0065 17.6004 18.5868 17.6004 18.1492V4.94922C17.6004 4.51161 17.4266 4.09193 17.1171 3.78249C16.8077 3.47306 16.388 3.29922 15.9504 3.29922H14.2069C14.0931 2.97738 13.8823 2.69876 13.6035 2.50175C13.3248 2.30474 12.9917 2.19904 12.6504 2.19922H9.35039ZM8.80039 3.84922C8.80039 3.70335 8.85834 3.56346 8.96148 3.46031C9.06463 3.35717 9.20452 3.29922 9.35039 3.29922H12.6504C12.7963 3.29922 12.9362 3.35717 13.0393 3.46031C13.1424 3.56346 13.2004 3.70335 13.2004 3.84922C13.2004 3.99509 13.1424 4.13498 13.0393 4.23813C12.9362 4.34127 12.7963 4.39922 12.6504 4.39922H9.35039C9.20452 4.39922 9.06463 4.34127 8.96148 4.23813C8.85834 4.13498 8.80039 3.99509 8.80039 3.84922ZM6.05039 4.39922H7.79389C7.90768 4.72106 8.11848 4.99968 8.39725 5.19669C8.67602 5.3937 9.00903 5.4994 9.35039 5.49922H12.6504C12.9917 5.4994 13.3248 5.3937 13.6035 5.19669C13.8823 4.99968 14.0931 4.72106 14.2069 4.39922H15.9504C16.0963 4.39922 16.2362 4.45717 16.3393 4.56031C16.4424 4.66346 16.5004 4.80335 16.5004 4.94922V18.1492C16.5004 18.2951 16.4424 18.435 16.3393 18.5381C16.2362 18.6413 16.0963 18.6992 15.9504 18.6992H6.05039C5.90452 18.6992 5.76463 18.6413 5.66148 18.5381C5.55834 18.435 5.50039 18.2951 5.50039 18.1492V4.94922C5.50039 4.80335 5.55834 4.66346 5.66148 4.56031C5.76463 4.45717 5.90452 4.39922 6.05039 4.39922Z" fill="#B81034"/>
</svg>
