<svg width="26" height="26" viewBox="0 0 26 26" fill="none" xmlns="http://www.w3.org/2000/svg">
<path d="M23.0826 20.6857L21.6506 19.566C19.6981 22.0619 16.6613 23.6641 13.2514 23.6641C7.36329 23.6641 2.59747 18.9033 2.58985 13.0127C2.58224 7.11699 7.35821 2.33594 13.2514 2.33594C17.8547 2.33594 21.7775 5.25586 23.2705 9.34629C23.3086 9.45293 23.2527 9.57227 23.1461 9.60781L21.7065 10.1029C21.6563 10.1201 21.6013 10.117 21.5534 10.0942C21.5055 10.0715 21.4684 10.0308 21.45 9.98105C21.4043 9.8541 21.3535 9.72715 21.3002 9.60273C20.8609 8.56172 20.2313 7.62734 19.4289 6.825C18.633 6.02763 17.6907 5.39138 16.6537 4.95117C15.5797 4.49668 14.4346 4.26562 13.2565 4.26562C12.0758 4.26562 10.9332 4.49668 9.85919 4.95117C8.82116 5.38953 7.87852 6.026 7.08399 6.825C6.28597 7.62077 5.6504 8.56421 5.2127 9.60273C4.75821 10.6793 4.52716 11.8219 4.52716 13.0025C4.52716 14.1832 4.75821 15.3258 5.2127 16.4023C5.65196 17.4434 6.28165 18.3777 7.08399 19.1801C7.88634 19.9824 8.82071 20.6121 9.85919 21.0539C10.9332 21.5084 12.0783 21.7395 13.2565 21.7395C14.4371 21.7395 15.5797 21.5084 16.6537 21.0539C17.6918 20.6156 18.6344 19.9791 19.4289 19.1801C19.6803 18.9287 19.9164 18.6621 20.1348 18.3828L18.6063 17.1895C18.576 17.1661 18.553 17.1346 18.5398 17.0987C18.5267 17.0628 18.5239 17.0239 18.5319 16.9865C18.5398 16.9491 18.5582 16.9147 18.5848 16.8873C18.6114 16.8599 18.6453 16.8405 18.6824 16.8314L23.141 15.7396C23.268 15.7092 23.3924 15.8057 23.3924 15.9352L23.4127 20.5283C23.4102 20.6959 23.2147 20.7898 23.0826 20.6857Z" fill="white"/>
</svg>
