<svg width="40" height="40" viewBox="0 0 40 40" fill="none" xmlns="http://www.w3.org/2000/svg">
<g clip-path="url(#clip0_154_3605)">
<path d="M20.0002 0.000518799C8.95441 0.000518799 0 8.95412 0 20.0008C0 31.0457 8.95441 40 20.0002 40C31.0456 40 40 31.0457 40 20.0008C40 8.95404 31.0456 0.000518799 20.0002 0.000518799Z" fill="#703D2A"/>
<path d="M20.0002 3.74881C11.0246 3.74881 3.74857 11.0242 3.74857 20.0003C3.74857 28.9751 11.0246 36.2512 20.0002 36.2512C28.9753 36.2512 36.2514 28.9752 36.2514 20.0003C36.2514 11.0242 28.9753 3.74881 20.0002 3.74881Z" fill="#A56C42"/>
<path d="M20.0002 6.89273C12.7611 6.89273 6.89265 12.7606 6.89265 20.0002C6.89265 27.2388 12.7611 33.1072 20.0002 33.1072C27.239 33.1072 33.1074 27.2388 33.1074 20.0002C33.1074 12.7607 27.239 6.89273 20.0002 6.89273Z" fill="#C6B8AF"/>
<path d="M20.0002 7.50735C13.1005 7.50735 7.50729 13.1001 7.50729 20.0002C7.50729 26.8993 13.1005 32.4925 20.0002 32.4925C26.8995 32.4925 32.4928 26.8993 32.4928 20.0002C32.4927 13.1002 26.8995 7.50735 20.0002 7.50735Z" fill="#BA7C49"/>
<path d="M9.76979 12.8366C9.34694 13.4384 8.98383 14.0699 8.67973 14.7211L20.0001 20L9.76979 12.8366Z" fill="#CE2E2E"/>
<path d="M8.67965 14.7211C8.37056 15.385 8.12273 16.0695 7.93658 16.7676L20.0001 20L8.67965 14.7211Z" fill="#3A3A3A"/>
<path d="M11.1701 11.1699C10.6464 11.6932 10.1809 12.2514 9.76979 12.8367L20.0001 20L11.1701 11.1699Z" fill="#3A3A3A"/>
<path d="M7.93658 16.7675C7.7485 17.4718 7.62346 18.1892 7.56106 18.9115L20.0001 20L7.93658 16.7675Z" fill="#CE2E2E"/>
<path d="M12.8367 9.76987C12.2511 10.1809 11.6931 10.6472 11.1701 11.1699L20.0001 20L12.8367 9.76987Z" fill="#CE2E2E"/>
<path d="M9.76979 27.1634L19.9991 20.0006L8.68038 25.2788C8.98383 25.9307 9.34743 26.561 9.76979 27.1634ZM19.9998 20.0002L19.9991 20.0006L20.0001 20.0002H19.9998Z" fill="#CE2E2E"/>
<path d="M7.56106 18.9116C7.49753 19.6355 7.49825 20.3641 7.56073 21.0883L20.0001 20L7.56106 18.9116Z" fill="#3A3A3A"/>
<path d="M7.93682 23.2323C8.12313 23.9303 8.37055 24.6158 8.68046 25.2788L20.0002 20.0002L7.93682 23.2323Z" fill="#3A3A3A"/>
<path d="M7.56074 21.0883C7.62346 21.8104 7.74866 22.528 7.93683 23.2323L20.0001 20.0002V20L7.56074 21.0883Z" fill="#CE2E2E"/>
<path d="M28.8298 11.1705L20.0001 20L30.2302 12.8367C29.8194 12.2513 29.3531 11.6933 28.8298 11.1705Z" fill="#3A3A3A"/>
<path d="M14.721 8.67966C14.0694 8.98383 13.4389 9.34694 12.8367 9.76979L20.0001 20L14.721 8.67966Z" fill="#3A3A3A"/>
<path d="M21.0883 7.56091L20.0001 20L23.2324 7.9366C22.5283 7.74835 21.8104 7.62347 21.0883 7.56091Z" fill="#3A3A3A"/>
<path d="M25.2786 8.68008L20.0001 20L27.1634 9.76974C26.5615 9.34729 25.9306 8.98337 25.2786 8.68008Z" fill="#3A3A3A"/>
<path d="M27.1634 9.76971L20.0001 20L28.8298 11.1705C28.307 10.6473 27.7483 10.1809 27.1634 9.76971Z" fill="#CE2E2E"/>
<path d="M23.2324 7.93658L20.0001 20L25.2786 8.68006C24.6155 8.37056 23.93 8.12346 23.2324 7.93658Z" fill="#CE2E2E"/>
<path d="M9.76979 27.1634C10.1809 27.7487 10.6472 28.3067 11.1705 28.8296L19.9998 20.0002L9.76979 27.1634Z" fill="#3A3A3A"/>
<path d="M18.9117 7.56089L20.0001 20L21.0883 7.56089C20.3642 7.49769 19.6358 7.49769 18.9117 7.56089Z" fill="#357157"/>
<path d="M18.9117 7.56091C18.19 7.62355 17.4719 7.74835 16.7676 7.93668L20.0001 20L18.9117 7.56091Z" fill="#3A3A3A"/>
<path d="M16.7676 7.93658C16.0693 8.1229 15.3848 8.37056 14.721 8.67965L20.0001 20L16.7676 7.93658Z" fill="#CE2E2E"/>
<path d="M20.0001 20L32.0636 23.2322C32.2517 22.528 32.3763 21.8102 32.4389 21.0883L20.0001 20Z" fill="#CE2E2E"/>
<path d="M20.0001 20L30.2304 27.1634C30.6529 26.5611 31.0163 25.9307 31.3204 25.2784L20.0001 20Z" fill="#CE2E2E"/>
<path d="M32.4396 18.9119L20.0001 20L32.4389 21.0883C32.5019 20.3639 32.5021 19.6355 32.4396 18.9119Z" fill="#3A3A3A"/>
<path d="M32.0636 16.768L20.0001 20L32.4396 18.9119C32.3764 18.19 32.2517 17.4718 32.0636 16.768Z" fill="#CE2E2E"/>
<path d="M30.2302 12.8366L20.0001 20L31.3202 14.7214C31.0163 14.0692 30.6529 13.4389 30.2302 12.8366Z" fill="#CE2E2E"/>
<path d="M31.3202 14.7213L20.0001 20L32.0636 16.768C31.8773 16.0703 31.6293 15.3847 31.3202 14.7213Z" fill="#3A3A3A"/>
<path d="M20.0001 20L28.8299 28.8299C29.3532 28.307 29.8195 27.7488 30.2304 27.1634L20.0001 20Z" fill="#3A3A3A"/>
<path d="M19.9998 20.0003L11.1704 28.8298C11.6933 29.3532 12.2517 29.8195 12.8367 30.2309L20.0001 20.0003H19.9998Z" fill="#CE2E2E"/>
<path d="M20.0001 20V20.0002L18.912 32.4393C19.636 32.5022 20.3646 32.5022 21.0886 32.4389L20.0001 20Z" fill="#CE2E2E"/>
<path d="M14.7214 31.3201C15.3848 31.6298 16.0699 31.8773 16.7676 32.0634L20.0001 20.0002V20L14.7214 31.3201Z" fill="#CE2E2E"/>
<path d="M16.7676 32.0634C17.472 32.2513 18.19 32.3769 18.912 32.4393L20.0001 20.0002L16.7676 32.0634Z" fill="#3A3A3A"/>
<path d="M14.7214 31.3201L19.9998 20.0006L12.8368 30.2308C13.439 30.6529 14.0694 31.0163 14.7214 31.3201ZM19.9998 20.0006L20.0001 20.0002V20L19.9998 20.0006Z" fill="#3A3A3A"/>
<path d="M20.0001 20L21.0886 32.4389C21.8109 32.3767 22.5281 32.2512 23.2324 32.0633L20.0001 20Z" fill="#3A3A3A"/>
<path d="M20.0001 20L25.2786 31.3201C25.9306 31.0162 26.5611 30.6529 27.1633 30.2304L20.0001 20Z" fill="#3A3A3A"/>
<path d="M20.0001 20L27.1633 30.2305C27.7488 29.8195 28.307 29.3531 28.8299 28.8299L20.0001 20Z" fill="#CE2E2E"/>
<path d="M20.0001 20L23.2324 32.0634C23.9307 31.8769 24.6152 31.6298 25.2786 31.3201L20.0001 20Z" fill="#CE2E2E"/>
<path d="M20.0001 20L31.3205 25.2784C31.6293 24.6152 31.8773 23.9304 32.0636 23.2322L20.0001 20Z" fill="#3A3A3A"/>
<path d="M20.0001 9.44095C14.1684 9.44095 9.44078 14.1681 9.44078 20.0002C9.44078 25.8315 14.1683 30.559 20.0001 30.559C25.8315 30.559 30.5591 25.8315 30.5591 20.0002C30.5591 14.1682 25.8316 9.44095 20.0001 9.44095Z" fill="#BFAFA5"/>
<path d="M20.0001 9.99551C14.4746 9.99551 9.99536 14.4744 9.99536 20.0002C9.99536 25.5253 14.4747 30.0045 20.0001 30.0045C25.5253 30.0045 30.0046 25.5252 30.0046 20.0002C30.0046 14.4743 25.5253 9.99551 20.0001 9.99551Z" fill="#C6854A"/>
<path d="M11.6192 14.1316C11.2728 14.6245 10.9753 15.1419 10.7262 15.6754L20.0001 20L11.6192 14.1316Z" fill="#E03636"/>
<path d="M10.7262 15.6755C10.473 16.2193 10.27 16.78 10.1174 17.352L20.0001 20L10.7262 15.6755Z" fill="#3A3A3A"/>
<path d="M12.7663 12.7662C12.3374 13.1948 11.9559 13.6521 11.6192 14.1316L20.0001 20L12.7663 12.7662Z" fill="#3A3A3A"/>
<path d="M10.1174 17.352C9.96336 17.929 9.86089 18.5166 9.80986 19.1084L20.0001 20L10.1174 17.352Z" fill="#E03636"/>
<path d="M14.1317 11.6193C13.6519 11.956 13.1948 12.338 12.7663 12.7662L20.0001 20L14.1317 11.6193Z" fill="#E03636"/>
<path d="M11.6192 25.8684L19.9992 20.0006L10.7267 24.3245C10.9754 24.8586 11.2733 25.3749 11.6192 25.8684ZM19.9998 20.0002L19.9993 20.0006L20.0001 20.0002H19.9998Z" fill="#E03636"/>
<path d="M9.80986 19.1083C9.75778 19.7014 9.75835 20.2983 9.80954 20.8916L20.0001 20L9.80986 19.1083Z" fill="#3A3A3A"/>
<path d="M10.1176 22.6479C10.2702 23.2198 10.473 23.7813 10.7267 24.3245L20 20.0002L10.1176 22.6479Z" fill="#3A3A3A"/>
<path d="M9.80954 20.8916C9.86098 21.4831 9.96352 22.071 10.1176 22.648L20.0001 20.0002V20L9.80954 20.8916Z" fill="#E03636"/>
<path d="M27.2335 12.7667L20.0001 20L28.3808 14.1316C28.0443 13.6521 27.6622 13.195 27.2335 12.7667Z" fill="#3A3A3A"/>
<path d="M15.6753 10.7262C15.1415 10.9754 14.6249 11.2729 14.1317 11.6193L20.0001 20L15.6753 10.7262Z" fill="#3A3A3A"/>
<path d="M20.8916 9.80963L20.0001 20L22.648 10.1174C22.0712 9.96321 21.4831 9.86099 20.8916 9.80963Z" fill="#3A3A3A"/>
<path d="M24.3243 10.7265L20.0001 20L25.8684 11.6191C25.3753 11.2731 24.8584 10.975 24.3243 10.7265Z" fill="#3A3A3A"/>
<path d="M25.8685 11.6191L20.0001 20L27.2335 12.7667C26.8053 12.3381 26.3476 11.956 25.8685 11.6191Z" fill="#E03636"/>
<path d="M22.648 10.1174L20.0001 20L24.3244 10.7265C23.7811 10.473 23.2195 10.2705 22.648 10.1174Z" fill="#E03636"/>
<path d="M11.6192 25.8684C11.9559 26.3479 12.338 26.805 12.7667 27.2334L19.9998 20.0002L11.6192 25.8684Z" fill="#3A3A3A"/>
<path d="M19.1084 9.80963L20.0001 20L20.8916 9.80963C20.2983 9.75795 19.7015 9.75795 19.1084 9.80963Z" fill="#398764"/>
<path d="M19.1084 9.80963C18.5172 9.86099 17.9289 9.96321 17.352 10.1174L20.0001 20L19.1084 9.80963Z" fill="#3A3A3A"/>
<path d="M17.3521 10.1174C16.78 10.2701 16.2191 10.473 15.6754 10.7262L20.0001 20L17.3521 10.1174Z" fill="#E03636"/>
<path d="M20.0001 20L29.8827 22.6479C30.0367 22.071 30.1389 21.4829 30.1901 20.8916L20.0001 20Z" fill="#E03636"/>
<path d="M20.0001 20L28.381 25.8684C28.7271 25.375 29.0247 24.8586 29.274 24.3242L20.0001 20Z" fill="#E03636"/>
<path d="M30.1907 19.1086L20.0001 20L30.1901 20.8916C30.2418 20.2981 30.2419 19.7014 30.1907 19.1086Z" fill="#3A3A3A"/>
<path d="M29.8827 17.3523L20.0001 20L30.1907 19.1086C30.139 18.5172 30.0368 17.929 29.8827 17.3523Z" fill="#E03636"/>
<path d="M28.3808 14.1316L20.0001 20L29.2737 15.6756C29.0247 15.1415 28.7271 14.625 28.3808 14.1316Z" fill="#E03636"/>
<path d="M29.2737 15.6757L20.0001 20L29.8827 17.3523C29.73 16.7807 29.5269 16.2191 29.2737 15.6757Z" fill="#3A3A3A"/>
<path d="M20.0001 20L27.2337 27.2336C27.6622 26.8053 28.0443 26.348 28.3809 25.8683L20.0001 20Z" fill="#3A3A3A"/>
<path d="M19.9998 20.0003L12.7667 27.2335C13.1951 27.6623 13.6525 28.0443 14.1318 28.3814L20.0002 20.0003H19.9998Z" fill="#E03636"/>
<path d="M20.0001 20V20.0002L19.1087 30.1905C19.7019 30.2421 20.2987 30.2421 20.8918 30.1902L20.0001 20Z" fill="#E03636"/>
<path d="M15.6757 29.2737C16.2191 29.5273 16.7804 29.73 17.3521 29.8826L20.0001 20.0002V20L15.6757 29.2737Z" fill="#E03636"/>
<path d="M17.3521 29.8826C17.9291 30.0365 18.5172 30.1394 19.1087 30.1905L20.0001 20.0002L17.3521 29.8826Z" fill="#3A3A3A"/>
<path d="M19.9998 20.0005L20.0001 20.0002V20L19.9998 20.0005ZM15.6757 29.2737L19.9998 20.0005L14.1317 28.3812C14.6252 28.7271 15.1415 29.0247 15.6757 29.2737Z" fill="#3A3A3A"/>
<path d="M20.0001 20L20.8918 30.1902C21.4835 30.1392 22.071 30.0364 22.648 29.8826L20.0001 20Z" fill="#3A3A3A"/>
<path d="M20.0001 20L24.3243 29.2737C24.8584 29.0248 25.375 28.7271 25.8683 28.381L20.0001 20Z" fill="#3A3A3A"/>
<path d="M20.0001 20L25.8683 28.381C26.348 28.0444 26.8053 27.6622 27.2337 27.2336L20.0001 20Z" fill="#E03636"/>
<path d="M20.0001 20L22.648 29.8826C23.2201 29.7298 23.7809 29.5274 24.3244 29.2737L20.0001 20Z" fill="#E03636"/>
<path d="M20.0001 20L29.274 24.3241C29.5269 23.7809 29.73 23.2198 29.8827 22.6479L20.0001 20Z" fill="#3A3A3A"/>
<path d="M20 11.6132C20.4007 11.6132 20.7256 11.2883 20.7256 10.8876C20.7256 10.4869 20.4007 10.162 20 10.162C19.5993 10.162 19.2744 10.4869 19.2744 10.8876C19.2744 11.2883 19.5993 11.6132 20 11.6132Z" fill="#E2E2E2"/>
<path d="M19.9777 10.2383C19.619 10.2383 19.3281 10.5291 19.3281 10.8879C19.3281 11.2467 19.6189 11.5375 19.9777 11.5375C20.3365 11.5375 20.3365 10.2383 19.9777 10.2383Z" fill="white"/>
<path d="M20.0001 12.0622C15.6161 12.0622 12.0621 15.6159 12.0621 20.0001C12.0621 24.3838 15.6161 27.9379 20.0001 27.9379C24.3839 27.9379 27.9379 24.3839 27.9379 20.0001C27.9379 15.6158 24.3839 12.0622 20.0001 12.0622Z" fill="#CEC0B7"/>
<path d="M20.0001 12.3948C15.7997 12.3948 12.3947 15.7996 12.3947 20.0002C12.3947 24.2002 15.7997 27.6053 20.0001 27.6053C24.2003 27.6053 27.6053 24.2002 27.6053 20.0002C27.6053 15.7996 24.2003 12.3948 20.0001 12.3948Z" fill="#D89450"/>
<path d="M24.8864 14.891C22.1263 12.1308 17.6512 12.1306 14.8909 14.891C12.1309 17.6511 12.1309 22.1262 14.8911 24.8864C16.2681 26.2634 19.4461 24.4656 21.9424 21.9752C24.4497 19.474 26.2695 16.2742 24.8864 14.891Z" fill="#E09F65"/>
<path d="M20.1209 12.3661H19.8791V27.6347H20.1209V12.3661Z" fill="#685B51"/>
<path d="M27.6347 19.8791H12.3661V20.1209H27.6347V19.8791Z" fill="#685B51"/>
<path d="M25.3126 14.516L14.5162 25.3124L14.6872 25.4834L25.4836 14.687L25.3126 14.516Z" fill="#685B51"/>
<path d="M14.6872 14.5166L14.5162 14.6876L25.3126 25.484L25.4836 25.3129L14.6872 14.5166Z" fill="#685B51"/>
<path d="M20 22.4457C21.3507 22.4457 22.4457 21.3507 22.4457 20C22.4457 18.6493 21.3507 17.5543 20 17.5543C18.6493 17.5543 17.5543 18.6493 17.5543 20C17.5543 21.3507 18.6493 22.4457 20 22.4457Z" fill="#685B51"/>
<path d="M20 21.0651C20.5882 21.0651 21.0651 20.5882 21.0651 20C21.0651 19.4118 20.5882 18.9349 20 18.9349C19.4118 18.9349 18.9349 19.4118 18.9349 20C18.9349 20.5882 19.4118 21.0651 20 21.0651Z" fill="#4C4642"/>
<path d="M19.9936 3.95462C19.8525 3.95462 19.5502 4.55016 19.5502 5.28484C19.5502 6.01953 19.8122 6.61506 19.9936 6.61506C20.175 6.61506 20.437 6.01953 20.437 5.28484C20.437 4.55016 20.1347 3.95462 19.9936 3.95462Z" fill="#C1BDBC"/>
<path d="M19.9936 3.95462C19.8525 3.95462 19.5502 4.55016 19.5502 5.28484C19.5502 6.01953 19.8122 6.61506 19.9936 6.61506C20.175 6.61506 20.1347 3.95462 19.9936 3.95462Z" fill="#D8D8D8"/>
<path d="M19.9936 33.3807C19.8525 33.3807 19.5502 33.9763 19.5502 34.711C19.5502 35.4456 19.8122 36.0412 19.9936 36.0412C20.175 36.0412 20.437 35.4456 20.437 34.711C20.437 33.9763 20.1347 33.3807 19.9936 33.3807Z" fill="#C1BDBC"/>
<path d="M19.9936 33.3807C19.8525 33.3807 19.5502 33.9763 19.5502 34.711C19.5502 35.4456 19.8122 36.0412 19.9936 36.0412C20.175 36.0412 20.1347 33.3807 19.9936 33.3807Z" fill="#D8D8D8"/>
<path d="M34.7067 19.5545C33.972 19.5545 33.3765 19.8165 33.3765 19.9979C33.3765 20.1793 33.972 20.4413 34.7067 20.4413C35.4414 20.4413 36.0369 20.139 36.0369 19.9979C36.0369 19.8568 35.4414 19.5545 34.7067 19.5545Z" fill="#C1BDBC"/>
<path d="M34.7067 19.5545C33.972 19.5545 33.3765 19.8165 33.3765 19.9979C33.3765 20.1793 36.0369 20.139 36.0369 19.9979C36.0369 19.8568 35.4414 19.5545 34.7067 19.5545Z" fill="#D8D8D8"/>
<path d="M5.28058 19.5545C4.54589 19.5545 3.95036 19.8165 3.95036 19.9979C3.95036 20.1793 4.54589 20.4413 5.28058 20.4413C6.01526 20.4413 6.6108 20.139 6.6108 19.9979C6.6108 19.8568 6.01526 19.5545 5.28058 19.5545Z" fill="#C1BDBC"/>
<path d="M5.28058 19.5545C4.54589 19.5545 3.95036 19.8165 3.95036 19.9979C3.95036 20.1793 6.6108 20.139 6.6108 19.9979C6.6108 19.8568 6.01526 19.5545 5.28058 19.5545Z" fill="#D8D8D8"/>
<path d="M31.338 8.65361C31.2382 8.55388 30.6033 8.76115 30.0838 9.28067C29.5643 9.80018 29.3285 10.4065 29.4567 10.5348C29.585 10.663 30.1914 10.4272 30.7109 9.90772C31.2304 9.38829 31.4377 8.75333 31.338 8.65361Z" fill="#C1BDBC"/>
<path d="M31.338 8.65361C31.2382 8.55388 30.6033 8.76115 30.0838 9.28067C29.5643 9.80018 29.3285 10.4065 29.4567 10.5348C29.585 10.663 31.4377 8.75333 31.338 8.65361Z" fill="#D8D8D8"/>
<path d="M10.5306 29.461C10.4309 29.3612 9.796 29.5686 9.27648 30.0881C8.75697 30.6076 8.52116 31.2139 8.64943 31.3423C8.77769 31.4705 9.38411 31.2347 9.90354 30.7152C10.423 30.1956 10.6303 29.5607 10.5306 29.461Z" fill="#C1BDBC"/>
<path d="M10.5306 29.461C10.4309 29.3612 9.796 29.5686 9.27648 30.0881C8.75697 30.6076 8.52116 31.2139 8.64943 31.3423C8.77761 31.4704 10.6303 29.5607 10.5306 29.461Z" fill="#D8D8D8"/>
<path d="M30.7109 30.0881C30.1914 29.5686 29.585 29.3327 29.4567 29.461C29.3285 29.5893 29.5643 30.1956 30.0838 30.7151C30.6033 31.2346 31.2382 31.442 31.338 31.3422C31.4377 31.2425 31.2304 30.6076 30.7109 30.0881Z" fill="#C1BDBC"/>
<path d="M30.7109 30.0881C30.1914 29.5686 29.585 29.3327 29.4567 29.461C29.3285 29.5893 31.2382 31.442 31.3379 31.3422C31.4377 31.2425 31.2304 30.6076 30.7109 30.0881Z" fill="#D8D8D8"/>
<path d="M9.90346 9.28066C9.38403 8.76115 8.77761 8.52534 8.64934 8.65361C8.52108 8.78187 8.75689 9.38829 9.2764 9.90772C9.79591 10.4272 10.4308 10.6346 10.5305 10.5348C10.6302 10.435 10.423 9.80018 9.90346 9.28066Z" fill="#C1BDBC"/>
<path d="M9.90345 9.28066C9.38402 8.76115 8.7776 8.52534 8.64934 8.65361C8.52107 8.78187 10.4308 10.6346 10.5305 10.5348C10.6302 10.435 10.423 9.80018 9.90345 9.28066Z" fill="#D8D8D8"/>
<path d="M25.8176 6.01244C25.14 5.72858 24.4895 5.74002 24.4193 5.90731C24.3493 6.07459 24.7973 6.54646 25.4748 6.83032C26.1524 7.11426 26.8185 7.06557 26.8731 6.93553C26.9276 6.80533 26.4952 6.29638 25.8176 6.01244Z" fill="#C1BDBC"/>
<path d="M25.8176 6.01244C25.14 5.72858 24.4895 5.74002 24.4193 5.90731C24.3493 6.07459 26.8186 7.06565 26.8731 6.93553C26.9276 6.80533 26.4952 6.29638 25.8176 6.01244Z" fill="#D8D8D8"/>
<path d="M14.5127 32.991C13.8351 32.7071 13.1846 32.7186 13.1145 32.8859C13.0444 33.0532 13.4925 33.525 14.17 33.809C14.8476 34.0928 15.5137 34.0442 15.5682 33.9141C15.6228 33.784 15.1903 33.275 14.5127 32.991Z" fill="#C1BDBC"/>
<path d="M14.5127 32.991C13.8351 32.7071 13.1846 32.7186 13.1145 32.8859C13.0444 33.0532 15.5137 34.0442 15.5683 33.914C15.6228 33.784 15.1903 33.275 14.5127 32.991Z" fill="#D8D8D8"/>
<path d="M33.9972 24.3363C33.83 24.2662 33.3582 24.7142 33.0742 25.3917C32.7903 26.0693 32.839 26.7354 32.9691 26.79C33.0992 26.8445 33.6083 26.4121 33.8922 25.7345C34.176 25.0569 34.1645 24.4063 33.9972 24.3363Z" fill="#C1BDBC"/>
<path d="M33.9972 24.3363C33.83 24.2662 32.839 26.7355 32.9691 26.79C33.0992 26.8445 33.6082 26.4121 33.8922 25.7345C34.176 25.0569 34.1645 24.4063 33.9972 24.3363Z" fill="#D8D8D8"/>
<path d="M7.01865 13.0314C6.85136 12.9613 6.3795 13.4094 6.09556 14.0869C5.81169 14.7645 5.86039 15.4306 5.99043 15.4851C6.12055 15.5396 6.6295 15.1071 6.91344 14.4296C7.19738 13.752 7.18593 13.1015 7.01865 13.0314Z" fill="#C1BDBC"/>
<path d="M7.01865 13.0314C6.85136 12.9613 5.86031 15.4306 5.99043 15.4851C6.12055 15.5397 6.6295 15.1072 6.91344 14.4297C7.19738 13.752 7.18594 13.1015 7.01865 13.0314Z" fill="#D8D8D8"/>
<path d="M33.9363 14.1936C33.6579 13.5138 33.1898 13.0619 33.0219 13.1306C32.8541 13.1993 32.8372 13.8497 33.1156 14.5296C33.394 15.2096 33.8994 15.6462 34.0299 15.5928C34.1605 15.5392 34.2147 14.8736 33.9363 14.1936Z" fill="#C1BDBC"/>
<path d="M33.9363 14.1936C33.6579 13.5138 33.1898 13.0619 33.0219 13.1306C32.8541 13.1993 33.8994 15.6461 34.0299 15.5927C34.1605 15.5392 34.2147 14.8736 33.9363 14.1936Z" fill="#D8D8D8"/>
<path d="M6.86571 25.2766C6.58734 24.5967 6.11926 24.1448 5.95141 24.2136C5.78348 24.2823 5.76671 24.9327 6.04509 25.6126C6.32347 26.2925 6.82887 26.7291 6.95947 26.6757C7.09 26.6222 7.14417 25.9566 6.86571 25.2766Z" fill="#C1BDBC"/>
<path d="M6.86571 25.2766C6.58733 24.5967 6.11926 24.1448 5.95141 24.2136C5.78348 24.2823 6.82887 26.7291 6.95939 26.6757C7.09 26.6222 7.14417 25.9566 6.86571 25.2766Z" fill="#D8D8D8"/>
<path d="M26.7632 32.9344C26.6945 32.7666 26.0441 32.7497 25.3642 33.0281C24.6842 33.3065 24.2477 33.812 24.3011 33.9425C24.3546 34.0731 25.0203 34.1272 25.7002 33.8489C26.3801 33.5704 26.832 33.1023 26.7632 32.9344Z" fill="#C1BDBC"/>
<path d="M26.7632 32.9344C26.6945 32.7666 24.2477 33.8119 24.3011 33.9424C24.3546 34.073 25.0203 34.1271 25.7002 33.8488C26.3801 33.5704 26.832 33.1023 26.7632 32.9344Z" fill="#D8D8D8"/>
<path d="M15.6802 5.86394C15.6116 5.69601 14.9611 5.67916 14.2812 5.95754C13.6013 6.23592 13.1647 6.74132 13.2181 6.87185C13.2716 7.00245 13.9373 7.05655 14.6171 6.77825C15.2971 6.49987 15.749 6.03179 15.6802 5.86394Z" fill="#C1BDBC"/>
<path d="M15.6802 5.86395C15.6116 5.69602 13.1647 6.74133 13.2181 6.87185C13.2716 7.00245 13.9373 7.05655 14.6171 6.77825C15.2971 6.49987 15.749 6.0318 15.6802 5.86395Z" fill="#D8D8D8"/>
</g>
<defs>
<clipPath id="clip0_154_3605">
<rect width="40" height="40" fill="white"/>
</clipPath>
</defs>
</svg>
