<svg width="26" height="26" viewBox="0 0 26 26" fill="none" xmlns="http://www.w3.org/2000/svg">
<path d="M22.9046 14.2383V17.9526C22.9046 19.5621 19.0244 21.6669 14.238 21.6669C9.45148 21.6669 5.57129 19.5621 5.57129 17.9526V14.8573" stroke="#B81034" stroke-width="1.52381" stroke-linecap="round" stroke-linejoin="round"/>
<path d="M5.93506 15.1781C7.00601 16.5994 10.3179 17.9328 14.2377 17.9328C19.0242 17.9328 22.9044 15.9444 22.9044 14.2359C22.9044 13.2764 21.6824 12.2252 19.7646 11.4873" stroke="#B81034" stroke-width="1.52381" stroke-linecap="round" stroke-linejoin="round"/>
<path d="M19.1903 8.04785V11.7621C19.1903 13.3717 15.3101 15.4764 10.5236 15.4764C5.73712 15.4764 1.85693 13.3717 1.85693 11.7621V8.04785" stroke="#B81034" stroke-width="1.52381" stroke-linecap="round" stroke-linejoin="round"/>
<path fill-rule="evenodd" clip-rule="evenodd" d="M10.5236 11.7423C15.3101 11.7423 19.1903 9.75388 19.1903 8.04531C19.1903 6.3355 15.3101 4.3335 10.5236 4.3335C5.73712 4.3335 1.85693 6.3355 1.85693 8.04531C1.85693 9.75388 5.73712 11.7423 10.5236 11.7423Z" stroke="#B81034" stroke-width="1.52381" stroke-linecap="round" stroke-linejoin="round"/>
</svg>
