<svg width="13" height="13" viewBox="0 0 13 13" className='setting' xmlns="http://www.w3.org/2000/svg">
<mask id="path-1-inside-1_383_3568">
<path d="M12.5709 5.55006L11.175 5.1334C11.0785 4.79644 10.9458 4.47094 10.7792 4.16256L11.4625 2.8834C11.4882 2.83511 11.4976 2.77985 11.4893 2.72581C11.4811 2.67176 11.4556 2.62182 11.4167 2.5834L10.4209 1.5834C10.3825 1.54451 10.3325 1.51905 10.2785 1.51079C10.2244 1.50253 10.1692 1.51192 10.1209 1.53756L8.85005 2.21673C8.53864 2.04201 8.20886 1.90227 7.86672 1.80006L7.45005 0.420897C7.43243 0.370071 7.39913 0.326147 7.35495 0.295448C7.31078 0.264749 7.258 0.248859 7.20422 0.250064H5.79588C5.74177 0.250316 5.68916 0.267828 5.64569 0.300053C5.60223 0.332277 5.57018 0.377532 5.55422 0.429231L5.13755 1.80423C4.79255 1.90589 4.45995 2.04564 4.14588 2.2209L2.89588 1.5459C2.8476 1.52026 2.79233 1.51087 2.73829 1.51912C2.68425 1.52738 2.63431 1.55284 2.59588 1.59173L1.58338 2.57923C1.54449 2.61766 1.51903 2.6676 1.51078 2.72164C1.50252 2.77568 1.51191 2.83095 1.53755 2.87923L2.21255 4.12923C2.03757 4.44198 1.89783 4.77317 1.79588 5.11673L0.416716 5.5334C0.365017 5.54936 0.319762 5.58141 0.287538 5.62488C0.255313 5.66834 0.237801 5.72096 0.237549 5.77506V7.1834C0.237801 7.2375 0.255313 7.29012 0.287538 7.33358C0.319762 7.37705 0.365017 7.4091 0.416716 7.42506L1.80422 7.84173C1.90728 8.17957 2.047 8.50512 2.22088 8.81256L1.53755 10.1209C1.51191 10.1692 1.50252 10.2244 1.51078 10.2785C1.51903 10.3325 1.54449 10.3825 1.58338 10.4209L2.57922 11.4167C2.61764 11.4556 2.66758 11.4811 2.72162 11.4893C2.77567 11.4976 2.83093 11.4882 2.87922 11.4626L4.16672 10.7751C4.47128 10.9394 4.79256 11.0707 5.12505 11.1667L5.54172 12.5709C5.55768 12.6226 5.58973 12.6679 5.63319 12.7001C5.67666 12.7323 5.72928 12.7498 5.78338 12.7501H7.19172C7.24582 12.7498 7.29844 12.7323 7.3419 12.7001C7.38537 12.6679 7.41742 12.6226 7.43338 12.5709L7.85005 11.1626C8.1797 11.066 8.49816 10.9348 8.80005 10.7709L10.0959 11.4626C10.1442 11.4882 10.1994 11.4976 10.2535 11.4893C10.3075 11.4811 10.3575 11.4556 10.3959 11.4167L11.3917 10.4209C11.4306 10.3825 11.4561 10.3325 11.4643 10.2785C11.4726 10.2244 11.4632 10.1692 11.4375 10.1209L10.7459 8.82923C10.9114 8.52619 11.0441 8.20631 11.1417 7.87506L12.5459 7.4584C12.5976 7.44243 12.6428 7.41038 12.6751 7.36692C12.7073 7.32345 12.7248 7.27084 12.725 7.21673V5.7959C12.7275 5.74409 12.7141 5.69276 12.6865 5.64882C12.6589 5.60487 12.6186 5.57041 12.5709 5.55006ZM6.50005 8.79173C6.0468 8.79173 5.60373 8.65733 5.22687 8.40551C4.85 8.1537 4.55628 7.79579 4.38283 7.37705C4.20937 6.9583 4.16399 6.49752 4.25242 6.05298C4.34084 5.60844 4.5591 5.20011 4.8796 4.87961C5.20009 4.55912 5.60843 4.34086 6.05297 4.25243C6.49751 4.16401 6.95829 4.20939 7.37703 4.38284C7.79578 4.55629 8.15369 4.85002 8.4055 5.22688C8.65731 5.60374 8.79172 6.04682 8.79172 6.50006C8.79172 7.10785 8.55027 7.69075 8.1205 8.12052C7.69073 8.55029 7.10784 8.79173 6.50005 8.79173Z"/>
</mask>
<path d="M11.175 5.1334L10.2137 5.40874L10.3644 5.93503L10.889 6.09162L11.175 5.1334ZM10.7792 4.16256L9.89718 3.69138L9.64404 4.16524L9.89942 4.63791L10.7792 4.16256ZM11.4625 2.8834L12.3446 3.35458L12.3457 3.3524L11.4625 2.8834ZM11.4167 2.5834L10.7081 3.28905L10.7138 3.29472L11.4167 2.5834ZM10.4209 1.5834L9.70956 2.28627L9.7123 2.28903L10.4209 1.5834ZM10.1209 1.53756L9.65188 0.654366L9.64954 0.655611L10.1209 1.53756ZM8.85005 2.21673L8.36073 3.08884L8.83836 3.35682L9.32139 3.09868L8.85005 2.21673ZM7.86672 1.80006L6.90945 2.08927L7.06503 2.60425L7.5805 2.75823L7.86672 1.80006ZM7.45005 0.420897L8.40732 0.131693L8.40148 0.11236L8.39486 0.0932793L7.45005 0.420897ZM7.20422 0.250064V1.25006H7.21542L7.22662 1.24981L7.20422 0.250064ZM5.79588 0.250064V-0.749947L5.79123 -0.749925L5.79588 0.250064ZM5.55422 0.429231L4.59873 0.134155L4.59719 0.139223L5.55422 0.429231ZM5.13755 1.80423L5.4202 2.76345L5.93802 2.61087L6.09457 2.09424L5.13755 1.80423ZM4.14588 2.2209L3.67073 3.1008L4.15378 3.36165L4.63317 3.09414L4.14588 2.2209ZM2.89588 1.5459L3.37104 0.66597L3.36489 0.662702L2.89588 1.5459ZM2.59588 1.59173L3.2941 2.30762L3.30071 2.30117L3.3072 2.2946L2.59588 1.59173ZM1.58338 2.57923L0.885154 1.86333L0.880515 1.86791L1.58338 2.57923ZM1.53755 2.87923L0.654333 3.34825L0.657643 3.35438L1.53755 2.87923ZM2.21255 4.12923L3.08525 4.61749L3.35364 4.13777L3.09245 3.65408L2.21255 4.12923ZM1.79588 5.11673L2.08509 6.074L2.60119 5.91808L2.75457 5.40121L1.79588 5.11673ZM0.416716 5.5334L0.127505 4.57611L0.121644 4.57792L0.416716 5.5334ZM0.237549 5.77506L-0.762451 5.77041V5.77506H0.237549ZM0.237549 7.1834H-0.762462L-0.76244 7.18805L0.237549 7.1834ZM0.416716 7.42506L0.121635 8.38057L0.129104 8.38281L0.416716 7.42506ZM1.80422 7.84173L2.7607 7.54995L2.60451 7.03794L2.09183 6.88398L1.80422 7.84173ZM2.22088 8.81256L3.10727 9.27552L3.35899 8.79355L3.09131 8.32026L2.22088 8.81256ZM1.53755 10.1209L2.42076 10.5899L2.42393 10.5838L1.53755 10.1209ZM1.58338 10.4209L2.2905 9.71378L2.28625 9.70958L1.58338 10.4209ZM2.57922 11.4167L3.29055 10.7139L3.28632 10.7096L2.57922 11.4167ZM2.87922 11.4626L3.34822 12.3458L3.35025 12.3447L2.87922 11.4626ZM4.16672 10.7751L4.64159 9.89501L4.16919 9.64011L3.69568 9.89295L4.16672 10.7751ZM5.12505 11.1667L6.08373 10.8823L5.9281 10.3578L5.4025 10.206L5.12505 11.1667ZM5.54172 12.5709L4.58297 12.8554L4.58624 12.866L5.54172 12.5709ZM5.78338 12.7501L5.77873 13.7501H5.78338V12.7501ZM7.19172 12.7501V13.7501L7.19637 13.7501L7.19172 12.7501ZM7.43338 12.5709L8.38893 12.866L8.39229 12.8546L7.43338 12.5709ZM7.85005 11.1626L7.56906 10.2029L7.04581 10.3561L6.89114 10.8789L7.85005 11.1626ZM8.80005 10.7709L9.27093 9.8887L8.79608 9.63525L8.32302 9.89201L8.80005 10.7709ZM10.0959 11.4626L9.625 12.3448L9.62688 12.3458L10.0959 11.4626ZM10.3959 11.4167L9.68876 10.7096L9.68456 10.7139L10.3959 11.4167ZM11.3917 10.4209L10.6888 9.70956L10.6846 9.71379L11.3917 10.4209ZM11.4375 10.1209L12.3208 9.65189L12.3191 9.64883L11.4375 10.1209ZM10.7459 8.82923L9.86832 8.34978L9.60898 8.82446L9.86432 9.30129L10.7459 8.82923ZM11.1417 7.87506L10.8572 6.91638L10.3361 7.07103L10.1825 7.59252L11.1417 7.87506ZM12.5459 7.4584L12.8304 8.41714L12.841 8.41387L12.5459 7.4584ZM12.725 7.21673L13.725 7.22139V7.21673H12.725ZM12.725 5.7959L11.7262 5.74851L11.725 5.77219V5.7959H12.725ZM12.8569 4.59185L11.4611 4.17518L10.889 6.09162L12.2848 6.50828L12.8569 4.59185ZM12.1364 4.85806C12.02 4.45169 11.8599 4.05912 11.659 3.68722L9.89942 4.63791C10.0317 4.88275 10.1371 5.1412 10.2137 5.40874L12.1364 4.85806ZM11.6613 4.63375L12.3446 3.35458L10.5805 2.41221L9.89718 3.69138L11.6613 4.63375ZM12.3457 3.3524C12.4723 3.11415 12.5186 2.84145 12.4779 2.57478L10.5008 2.87683C10.4766 2.71824 10.5041 2.55607 10.5794 2.41439L12.3457 3.3524ZM12.4779 2.57478C12.4371 2.30811 12.3115 2.06168 12.1196 1.87208L10.7138 3.29472C10.5997 3.18196 10.525 3.03542 10.5008 2.87683L12.4779 2.57478ZM12.1253 1.87777L11.1295 0.877768L9.7123 2.28903L10.7081 3.28903L12.1253 1.87777ZM11.1322 0.88053C10.9426 0.688643 10.6962 0.563003 10.4295 0.522261L10.1274 2.49932C9.96886 2.47509 9.82232 2.40038 9.70956 2.28626L11.1322 0.88053ZM10.4295 0.522261C10.1628 0.48152 9.89013 0.527849 9.65188 0.654369L10.5899 2.42076C10.4482 2.496 10.286 2.52355 10.1274 2.49932L10.4295 0.522261ZM9.64954 0.655611L8.37871 1.33478L9.32139 3.09868L10.5922 2.41952L9.64954 0.655611ZM9.33937 1.34462C8.96364 1.13381 8.56574 0.965212 8.15294 0.8419L7.5805 2.75823C7.85197 2.83932 8.11364 2.9502 8.36073 3.08884L9.33937 1.34462ZM8.82398 1.51086L8.40732 0.131693L6.49278 0.710102L6.90945 2.08927L8.82398 1.51086ZM8.39486 0.0932793C8.30789 -0.157527 8.14359 -0.374264 7.92561 -0.525741L6.7843 1.11664C6.65467 1.02656 6.55696 0.897668 6.50524 0.748515L8.39486 0.0932793ZM7.92561 -0.525741C7.70763 -0.677221 7.4472 -0.755632 7.18181 -0.749685L7.22662 1.24981C7.0688 1.25335 6.91393 1.20672 6.7843 1.11664L7.92561 -0.525741ZM7.20422 -0.749936H5.79588V1.25006H7.20422V-0.749936ZM5.79123 -0.749925C5.52424 -0.748682 5.26461 -0.662268 5.05014 -0.503259L6.24125 1.10336C6.11371 1.19792 5.95931 1.24931 5.80054 1.25005L5.79123 -0.749925ZM5.05014 -0.503259C4.83566 -0.34425 4.67752 -0.120944 4.59874 0.134159L6.50969 0.724302C6.46284 0.876008 6.3688 1.0088 6.24125 1.10336L5.05014 -0.503259ZM4.59719 0.139223L4.18052 1.51422L6.09457 2.09424L6.51124 0.719238L4.59719 0.139223ZM4.8549 0.845007C4.43871 0.967643 4.03747 1.13623 3.65859 1.34766L4.63317 3.09414C4.88243 2.95504 5.1464 2.84413 5.4202 2.76345L4.8549 0.845007ZM4.62103 1.34099L3.37103 0.665992L2.42073 2.4258L3.67073 3.1008L4.62103 1.34099ZM3.36489 0.662702C3.12664 0.536182 2.85394 0.489853 2.58727 0.530595L2.88932 2.50765C2.73073 2.53188 2.56856 2.50433 2.42688 2.42909L3.36489 0.662702ZM2.58727 0.530595C2.3206 0.571336 2.07417 0.696974 1.88456 0.888864L3.3072 2.2946C3.19445 2.40871 3.0479 2.48343 2.88932 2.50765L2.58727 0.530595ZM1.89767 0.875841L0.885169 1.86334L2.2816 3.29512L3.2941 2.30762L1.89767 0.875841ZM0.880515 1.86791C0.688626 2.05752 0.562987 2.30394 0.522246 2.57061L2.49931 2.87266C2.47508 3.03125 2.40036 3.17779 2.28625 3.29055L0.880515 1.86791ZM0.522246 2.57061C0.481505 2.83729 0.527834 3.10998 0.654354 3.34824L2.42074 2.41022C2.49598 2.55191 2.52353 2.71408 2.49931 2.87266L0.522246 2.57061ZM0.657643 3.35438L1.33264 4.60438L3.09245 3.65408L2.41745 2.40408L0.657643 3.35438ZM1.33985 3.64097C1.12877 4.01826 0.960184 4.4178 0.837199 4.83226L2.75457 5.40121C2.83547 5.12854 2.94638 4.8657 3.08525 4.61749L1.33985 3.64097ZM1.50668 4.15946L0.127511 4.57613L0.70592 6.49066L2.08509 6.074L1.50668 4.15946ZM0.121644 4.57792C-0.133459 4.6567 -0.356765 4.81484 -0.515774 5.02932L1.09085 6.22044C0.996289 6.34798 0.863493 6.44202 0.711787 6.48887L0.121644 4.57792ZM-0.515774 5.02932C-0.674783 5.24379 -0.761197 5.50342 -0.76244 5.77041L1.23754 5.77972C1.2368 5.93849 1.18541 6.09289 1.09085 6.22044L-0.515774 5.02932ZM-0.762451 5.77506V7.1834H1.23755V5.77506H-0.762451ZM-0.76244 7.18805C-0.761197 7.45504 -0.674783 7.71467 -0.515774 7.92914L1.09085 6.73803C1.18541 6.86557 1.2368 7.01997 1.23754 7.17874L-0.76244 7.18805ZM-0.515774 7.92914C-0.356765 8.14362 -0.133459 8.30176 0.121644 8.38054L0.711787 6.46959C0.863493 6.51644 0.996289 6.61048 1.09085 6.73803L-0.515774 7.92914ZM0.129104 8.38281L1.5166 8.79948L2.09183 6.88398L0.704327 6.46732L0.129104 8.38281ZM0.847731 8.13351C0.972078 8.54113 1.14066 8.93392 1.35046 9.30486L3.09131 8.32026C2.95334 8.07632 2.84247 7.81801 2.7607 7.54995L0.847731 8.13351ZM1.3345 8.34961L0.651165 9.65795L2.42393 10.5838L3.10727 9.27552L1.3345 8.34961ZM0.654354 9.65189C0.527834 9.89014 0.481505 10.1628 0.522246 10.4295L2.49931 10.1275C2.52353 10.286 2.49598 10.4482 2.42074 10.5899L0.654354 9.65189ZM0.522246 10.4295C0.562988 10.6962 0.688628 10.9426 0.880515 11.1322L2.28625 9.70958C2.40036 9.82233 2.47508 9.96888 2.49931 10.1275L0.522246 10.4295ZM0.876275 11.128L1.87211 12.1238L3.28632 10.7096L2.29049 9.71379L0.876275 11.128ZM1.86789 12.1196C2.0575 12.3115 2.30392 12.4371 2.5706 12.4779L2.87265 10.5008C3.03124 10.525 3.17778 10.5998 3.29054 10.7139L1.86789 12.1196ZM2.5706 12.4779C2.83727 12.5186 3.10997 12.4723 3.34822 12.3458L2.41021 10.5794C2.55189 10.5041 2.71406 10.4766 2.87265 10.5008L2.5706 12.4779ZM3.35025 12.3447L4.63775 11.6572L3.69568 9.89295L2.40818 10.5804L3.35025 12.3447ZM3.69184 11.6551C4.05915 11.8533 4.44661 12.0117 4.8476 12.1275L5.4025 10.206C5.1385 10.1298 4.88342 10.0255 4.64159 9.89501L3.69184 11.6551ZM4.16637 11.4512L4.58303 12.8554L6.5004 12.2864L6.08373 10.8823L4.16637 11.4512ZM4.58624 12.866C4.66502 13.1211 4.82316 13.3444 5.03764 13.5034L6.22875 11.8968C6.3563 11.9913 6.45034 12.1241 6.49719 12.2758L4.58624 12.866ZM5.03764 13.5034C5.25212 13.6624 5.51174 13.7488 5.77873 13.7501L5.78804 11.7501C5.94681 11.7508 6.1012 11.8022 6.22875 11.8968L5.03764 13.5034ZM5.78338 13.7501H7.19172V11.7501H5.78338V13.7501ZM7.19637 13.7501C7.46336 13.7488 7.72298 13.6624 7.93746 13.5034L6.74635 11.8968C6.8739 11.8022 7.02829 11.7508 7.18706 11.7501L7.19637 13.7501ZM7.93746 13.5034C8.15194 13.3444 8.31008 13.1211 8.38886 12.866L6.47791 12.2758C6.52476 12.1241 6.6188 11.9913 6.74635 11.8968L7.93746 13.5034ZM8.39229 12.8546L8.80896 11.4463L6.89114 10.8789L6.47447 12.2872L8.39229 12.8546ZM8.13104 12.1223C8.52872 12.0058 8.91289 11.8475 9.27708 11.6498L8.32302 9.89201C8.08343 10.0221 7.83069 10.1263 7.56906 10.2029L8.13104 12.1223ZM8.32917 11.6531L9.625 12.3448L10.5668 10.5804L9.27093 9.8887L8.32917 11.6531ZM9.62688 12.3458C9.86513 12.4723 10.1378 12.5186 10.4045 12.4779L10.1024 10.5008C10.261 10.4766 10.4232 10.5041 10.5649 10.5794L9.62688 12.3458ZM10.4045 12.4779C10.6712 12.4371 10.9176 12.3115 11.1072 12.1196L9.68456 10.7139C9.79732 10.5998 9.94386 10.525 10.1024 10.5008L10.4045 12.4779ZM11.103 12.1238L12.0988 11.128L10.6846 9.71379L9.68878 10.7096L11.103 12.1238ZM12.0946 11.1322C12.2865 10.9426 12.4121 10.6962 12.4529 10.4295L10.4758 10.1275C10.5 9.96887 10.5747 9.82233 10.6888 9.70958L12.0946 11.1322ZM12.4529 10.4295C12.4936 10.1628 12.4473 9.89014 12.3207 9.65189L10.5544 10.5899C10.4791 10.4482 10.4516 10.286 10.4758 10.1275L12.4529 10.4295ZM12.3191 9.64883L11.6274 8.35717L9.86432 9.30129L10.556 10.593L12.3191 9.64883ZM11.6235 9.30868C11.8232 8.9431 11.9833 8.55722 12.101 8.15761L10.1825 7.59252C10.105 7.85541 9.99971 8.10927 9.86832 8.34978L11.6235 9.30868ZM11.4262 8.83375L12.8304 8.41708L12.2614 6.49971L10.8572 6.91638L11.4262 8.83375ZM12.841 8.41387C13.0961 8.33509 13.3194 8.17696 13.4784 7.96248L11.8717 6.77136C11.9663 6.64381 12.0991 6.54977 12.2508 6.50292L12.841 8.41387ZM13.4784 7.96248C13.6374 7.748 13.7238 7.48837 13.725 7.22139L11.7251 7.21207C11.7258 7.05331 11.7772 6.89891 11.8717 6.77136L13.4784 7.96248ZM13.725 7.21673V5.7959H11.725V7.21673H13.725ZM13.7239 5.84328C13.7361 5.58764 13.6697 5.33438 13.5337 5.11753L11.8393 6.18011C11.7584 6.05114 11.719 5.90054 11.7262 5.74851L13.7239 5.84328ZM13.5337 5.11753C13.3977 4.90068 13.1986 4.73065 12.9632 4.63024L12.1786 6.46989C12.0386 6.41018 11.9202 6.30906 11.8393 6.18011L13.5337 5.11753ZM6.50005 7.79173C6.24458 7.79173 5.99485 7.71598 5.78244 7.57405L4.6713 9.23698C5.21261 9.59868 5.84902 9.79173 6.50005 9.79173V7.79173ZM5.78244 7.57405C5.57002 7.43212 5.40447 7.23038 5.3067 6.99436L3.45895 7.75973C3.70808 8.3612 4.12999 8.87529 4.6713 9.23698L5.78244 7.57405ZM5.3067 6.99436C5.20894 6.75834 5.18336 6.49863 5.2332 6.24807L3.27163 5.85789C3.14462 6.49641 3.20981 7.15826 3.45895 7.75973L5.3067 6.99436ZM5.2332 6.24807C5.28304 5.99751 5.40606 5.76736 5.5867 5.58672L4.17249 4.1725C3.71214 4.63285 3.39864 5.21937 3.27163 5.85789L5.2332 6.24807ZM5.5867 5.58672C5.76734 5.40608 5.9975 5.28306 6.24806 5.23322L5.85788 3.27165C5.21936 3.39866 4.63284 3.71216 4.17249 4.1725L5.5867 5.58672ZM6.24806 5.23322C6.49862 5.18338 6.75833 5.20896 6.99435 5.30672L7.75972 3.45896C7.15824 3.20982 6.4964 3.14464 5.85788 3.27165L6.24806 5.23322ZM6.99435 5.30672C7.23037 5.40448 7.4321 5.57004 7.57403 5.78245L9.23697 4.67131C8.87528 4.13 8.36119 3.7081 7.75972 3.45896L6.99435 5.30672ZM7.57403 5.78245C7.71596 5.99487 7.79172 6.2446 7.79172 6.50006H9.79172C9.79172 5.84903 9.59866 5.21262 9.23697 4.67131L7.57403 5.78245ZM7.79172 6.50006C7.79172 6.84264 7.65563 7.17118 7.4134 7.41341L8.82761 8.82762C9.44492 8.21032 9.79172 7.37307 9.79172 6.50006H7.79172ZM7.4134 7.41341C7.17116 7.65564 6.84262 7.79173 6.50005 7.79173V9.79173C7.37305 9.79173 8.2103 9.44493 8.82761 8.82762L7.4134 7.41341Z" mask="url(#path-1-inside-1_383_3568)"/>
</svg>
