<svg width="10" height="10" viewBox="0 0 10 10" fill="none" xmlns="http://www.w3.org/2000/svg">
<g clip-path="url(#clip0_154_3581)">
<path d="M4.91426 8.14345L4.33774 8.44656L4.76022 9.3026C4.85831 9.50134 5.14171 9.50134 5.2398 9.3026L5.66228 8.44656L5.08575 8.14345C5.03207 8.11523 4.96793 8.11523 4.91426 8.14345Z" fill="#8C6239"/>
<path d="M2.4245 6.20995L1.93393 5.73175L1.24681 6.40152C1.08811 6.55622 1.17568 6.82576 1.39502 6.85763L2.3701 6.99932L2.47751 6.37305C2.48775 6.31328 2.46793 6.25228 2.4245 6.20995Z" fill="#8C6239"/>
<path d="M3.49399 3.24459L3.79937 2.62583L2.92018 2.16363C2.724 2.06051 2.49473 2.22708 2.5322 2.44552L2.70279 3.4402L3.35525 3.3454C3.41527 3.33668 3.46716 3.29899 3.49399 3.24459Z" fill="#8C6239"/>
<path d="M7.52248 6.37302L7.62989 6.99929L8.60497 6.8576C8.82429 6.82573 8.91188 6.55619 8.75318 6.40149L8.06606 5.73172L7.57548 6.20992C7.53204 6.25227 7.51222 6.31326 7.52248 6.37302Z" fill="#8C6239"/>
<path d="M6.64472 3.3454L7.29718 3.4402L7.46778 2.44552C7.50525 2.22708 7.27597 2.06051 7.0798 2.16363L6.20061 2.62583L6.50598 3.24459C6.53281 3.29899 6.5847 3.33668 6.64472 3.3454Z" fill="#8C6239"/>
<path d="M9.64275 3.78103L7.29717 3.4402L6.64471 3.3454C6.58469 3.33667 6.53282 3.29899 6.50596 3.2446L6.20059 2.62585L5.16523 0.527914C5.09764 0.390964 4.90236 0.390964 4.83478 0.527914L3.79939 2.62583L3.49402 3.24458C3.46719 3.29896 3.4153 3.33665 3.35528 3.34538L2.70282 3.44018L0.357238 3.78101C0.206105 3.80296 0.145767 3.98869 0.255128 4.09531L1.93395 5.73175L2.42452 6.20995C2.46794 6.25228 2.48776 6.31328 2.4775 6.37304L2.37009 6.9993L1.96538 9.35897C1.93956 9.50948 2.09755 9.62428 2.23273 9.55321L4.33771 8.44655L4.91424 8.14345C4.96792 8.11522 5.03204 8.11522 5.08573 8.14345L5.66225 8.44655L7.76724 9.55321C7.90242 9.62428 8.0604 9.50948 8.03458 9.35897L7.62987 6.99932L7.52246 6.37306C7.5122 6.3133 7.53202 6.2523 7.57545 6.20997L8.06602 5.73177L9.74484 4.09533C9.85424 3.98871 9.79388 3.80298 9.64275 3.78103Z" fill="#FFA314"/>
<path d="M9.98096 3.8449C9.93554 3.70506 9.81692 3.60506 9.67142 3.58391L7.52807 3.27246L7.66412 2.47918C7.69436 2.30283 7.62323 2.12797 7.47849 2.02282C7.33375 1.91766 7.14544 1.90407 6.98712 1.9873L6.28881 2.35443L5.34386 0.439755C5.34384 0.439755 5.34384 0.439755 5.34384 0.439755C5.27876 0.307904 5.14701 0.226013 4.99998 0.226013C4.85295 0.226013 4.7212 0.307904 4.6561 0.439755L3.71116 2.35443L3.01284 1.9873C2.8545 1.90407 2.66619 1.91764 2.52147 2.02282C2.37672 2.12797 2.3056 2.30285 2.33584 2.47918L2.47189 3.27246L0.328582 3.58391C0.183086 3.60506 0.0644624 3.70506 0.0190448 3.8449C-0.0263728 3.98474 0.0107979 4.13535 0.116075 4.23796L1.64856 5.73176L1.10779 6.25888C0.979667 6.38376 0.934429 6.56705 0.989687 6.7372C1.04496 6.90736 1.1893 7.02905 1.36637 7.05477L2.13921 7.16706L1.76906 9.32529C1.74422 9.47021 1.80268 9.61393 1.92162 9.70034C1.98883 9.74917 2.06746 9.77399 2.14664 9.77399C2.20758 9.77399 2.26883 9.75929 2.32544 9.72953L4.24955 8.71797L4.5816 9.39077C4.66078 9.5512 4.8211 9.65086 5.00002 9.65086C5.17892 9.65086 5.33926 9.5512 5.41844 9.39077L5.75049 8.71797L7.6746 9.72953C7.80468 9.79793 7.95946 9.7868 8.0784 9.70036C8.19736 9.61395 8.25581 9.47023 8.23097 9.32531L7.86079 7.1671L8.63365 7.05479C8.8107 7.02905 8.95504 6.90738 9.01032 6.73722C9.06557 6.56707 9.02034 6.38378 8.89223 6.25892L8.35144 5.7318L9.88391 4.238C9.9892 4.13535 10.0264 3.98474 9.98096 3.8449ZM7.17252 2.33994C7.20517 2.32279 7.23152 2.33582 7.24433 2.34514C7.25714 2.35445 7.27769 2.37548 7.27144 2.41185L7.13365 3.21515L6.68113 3.14939L6.46518 2.71181L7.17252 2.33994ZM2.72856 2.41185C2.72233 2.37548 2.74289 2.35445 2.75567 2.34514C2.76394 2.33915 2.77785 2.33158 2.79543 2.33158C2.80512 2.33158 2.81591 2.33387 2.82749 2.33994L3.53481 2.71181L3.31885 3.14939L2.86633 3.21515L2.72856 2.41185ZM1.42368 6.66051C1.38717 6.65519 1.37351 6.62914 1.3686 6.61408C1.36372 6.59902 1.35944 6.56992 1.38588 6.54416L1.93393 6.00992L2.27985 6.34711L2.20658 6.77426L1.42368 6.66051ZM5.06114 9.21444C5.04482 9.24752 5.01584 9.25246 5 9.25246C4.98416 9.25246 4.95518 9.24752 4.93887 9.21444L4.6023 8.53251L5 8.32343L5.3977 8.53251L5.06114 9.21444ZM8.61415 6.5442C8.64056 6.56994 8.63628 6.59904 8.6314 6.6141C8.6265 6.62916 8.61283 6.65521 8.57632 6.66053L7.7934 6.7743L7.72014 6.34715L8.06605 6.00996L8.61415 6.5442ZM8.06605 5.4536L7.78067 5.73178L7.43644 6.06733C7.34606 6.15544 7.30484 6.28231 7.32616 6.40673L7.39903 6.83158L7.4664 7.22437L7.83316 9.36278L5.92684 8.36058L5.57408 8.17513L5.17844 7.96714C5.06671 7.9084 4.93329 7.9084 4.82156 7.96714L4.42593 8.17513L4.07316 8.36058L2.16686 9.36278L2.53363 7.22437L2.601 6.83158L2.67386 6.40673C2.69518 6.28231 2.65396 6.15544 2.56359 6.06731L2.21935 5.73176L1.93395 5.45358L0.415871 3.9738L2.53932 3.66524L2.93372 3.60793L3.38393 3.54251C3.50885 3.52437 3.61678 3.44596 3.67267 3.33276L3.88759 2.89727L4.06396 2.53988L5 0.643218L5.93604 2.53988L6.11241 2.89725L6.32735 3.33278C6.38323 3.44598 6.49117 3.52439 6.61605 3.54251L7.06628 3.60793L7.46068 3.66524L9.58413 3.9738L8.06605 5.4536Z" fill="black"/>
</g>
<defs>
<clipPath id="clip0_154_3581">
<rect width="10" height="10" fill="white"/>
</clipPath>
</defs>
</svg>
