<svg width="13" height="13" viewBox="0 0 13 13" className='support' xmlns="http://www.w3.org/2000/svg">
<path d="M1.06258 5.71452L0.980532 6.28563H1.5575H2.125C2.15815 6.28563 2.18995 6.2988 2.21339 6.32224L2.55872 5.97691L2.21339 6.32224C2.23683 6.34568 2.25 6.37747 2.25 6.41063V9.625C2.25 9.65815 2.23683 9.68995 2.21339 9.71339L2.55157 10.0516L2.21339 9.71339C2.18995 9.73683 2.15815 9.75 2.125 9.75H1.5C1.05121 9.75 0.75 9.41897 0.75 9.08938V6.5C0.75 3.32989 3.32989 0.75 6.5 0.75C9.67011 0.75 12.25 3.32989 12.25 6.5V9.08938C12.25 9.41897 11.9488 9.75 11.5 9.75H11V10.25C11 11.3526 10.1026 12.25 9 12.25H5.75V11.375H7.25V11.5V12H7.75H9C9.96552 12 10.75 11.2155 10.75 10.25V6.41063C10.75 6.37747 10.7632 6.34568 10.7866 6.32224C10.8101 6.2988 10.8418 6.28563 10.875 6.28563H11.4425H12.0195L11.9374 5.71452C11.5552 3.05428 9.2671 1 6.5 1C3.7329 1 1.44478 3.05428 1.06258 5.71452Z" />
</svg>
