<svg width="15" height="11" viewBox="0 0 15 11" xmlns="http://www.w3.org/2000/svg">
<path d="M15 7.04964C15 7.22899 14.9348 7.39203 14.8043 7.50616L11.7717 10.5388C11.6413 10.6692 11.4783 10.7181 11.3152 10.7181C11.1522 10.7181 10.9728 10.6366 10.8587 10.5225C10.5978 10.2616 10.5978 9.83768 10.8587 9.57681L12.7663 7.62029H6.3913C6.03261 7.62029 5.73913 7.32682 5.73913 6.96812C5.73913 6.60942 6.03261 6.31595 6.3913 6.31595H12.7663L10.8587 4.44095C10.5978 4.18008 10.5978 3.80508 10.8587 3.56051C11.1196 3.29964 11.5272 3.29964 11.788 3.56051L14.8207 6.59312C14.9348 6.70725 15 6.87029 15 7.04964ZM2.2337 4.68551H8.6087C8.96739 4.68551 9.26087 4.39203 9.26087 4.03334C9.26087 3.67464 8.96739 3.38116 8.6087 3.38116H2.2337L4.1413 1.42464C4.40217 1.16377 4.40217 0.739859 4.1413 0.478989C3.88043 0.21812 3.47283 0.21812 3.21196 0.462685L0.195652 3.49529C0.0652174 3.60942 0 3.77247 0 3.95182C0 4.13116 0.0652174 4.29421 0.195652 4.40834L3.22826 7.44095C3.3587 7.57138 3.52174 7.6366 3.68478 7.6366C3.84783 7.6366 4.02717 7.57138 4.1413 7.44095C4.40217 7.18008 4.40217 6.80508 4.1413 6.56051L2.2337 4.68551Z"/>
</svg>
