<svg width="11" height="15" viewBox="0 0 11 15" className='users' xmlns="http://www.w3.org/2000/svg">
<path d="M0.8125 14.0625H10.1875V11.7188C10.1865 10.8488 9.84049 10.0148 9.22535 9.39965C8.61021 8.78451 7.77619 8.43849 6.90625 8.4375H4.09375C3.22381 8.43849 2.38979 8.78451 1.77465 9.39965C1.15951 10.0148 0.813493 10.8488 0.8125 11.7188V14.0625ZM2.21875 4.21875C2.21875 4.86772 2.41119 5.50212 2.77174 6.04171C3.13229 6.58131 3.64475 7.00188 4.24432 7.25023C4.84389 7.49858 5.50364 7.56356 6.14014 7.43695C6.77664 7.31034 7.3613 6.99784 7.82019 6.53894C8.27909 6.08005 8.59159 5.49539 8.7182 4.85889C8.84481 4.22239 8.77983 3.56264 8.53148 2.96307C8.28313 2.3635 7.86256 1.85104 7.32297 1.49049C6.78337 1.12994 6.14897 0.9375 5.5 0.9375C4.62976 0.9375 3.79516 1.2832 3.17981 1.89856C2.56445 2.51391 2.21875 3.34851 2.21875 4.21875Z"/>
</svg>
