<svg width="32" height="29" viewBox="0 0 32 29" fill="none" xmlns="http://www.w3.org/2000/svg">
<path d="M4 0.5C1.79375 0.5 0 2.29375 0 4.5V24.5C0 26.7062 1.79375 28.5 4 28.5H28C30.2062 28.5 32 26.7062 32 24.5V10.5C32 8.29375 30.2062 6.5 28 6.5H5C4.45 6.5 4 6.05 4 5.5C4 4.95 4.45 4.5 5 4.5H28C29.1063 4.5 30 3.60625 30 2.5C30 1.39375 29.1063 0.5 28 0.5H4ZM26 19.5C24.8937 19.5 24 18.6063 24 17.5C24 16.3938 24.8937 15.5 26 15.5C27.1063 15.5 28 16.3938 28 17.5C28 18.6063 27.1063 19.5 26 19.5Z" fill="white"/>
</svg>
