<svg width="20" height="20" viewBox="0 0 20 20" fill="none" xmlns="http://www.w3.org/2000/svg">
<g clip-path="url(#clip0_32_2186)">
<path fill-rule="evenodd" clip-rule="evenodd" d="M6.22075 0.888313C7.19825 0.843313 7.50992 0.833313 9.99992 0.833313C12.4899 0.833313 12.8016 0.844146 13.7783 0.888313C14.7549 0.93248 15.4216 1.08831 16.0049 1.31415C16.6158 1.54498 17.1699 1.90581 17.6283 2.37248C18.0949 2.82998 18.4549 3.38331 18.6849 3.99498C18.9116 4.57831 19.0666 5.24498 19.1116 6.21998C19.1566 7.19915 19.1666 7.51081 19.1666 9.99998C19.1666 12.49 19.1558 12.8016 19.1116 13.7791C19.0674 14.7541 18.9116 15.4208 18.6849 16.0041C18.4549 16.6159 18.0943 17.1701 17.6283 17.6283C17.1699 18.095 16.6158 18.455 16.0049 18.685C15.4216 18.9116 14.7549 19.0666 13.7799 19.1116C12.8016 19.1566 12.4899 19.1666 9.99992 19.1666C7.50992 19.1666 7.19825 19.1558 6.22075 19.1116C5.24575 19.0675 4.57909 18.9116 3.99575 18.685C3.38402 18.455 2.82977 18.0944 2.37159 17.6283C1.90524 17.1705 1.54435 16.6166 1.31409 16.005C1.08825 15.4216 0.933252 14.755 0.888252 13.78C0.843252 12.8008 0.833252 12.4891 0.833252 9.99998C0.833252 7.50998 0.844085 7.19831 0.888252 6.22165C0.932419 5.24498 1.08825 4.57831 1.31409 3.99498C1.54469 3.38338 1.90585 2.82941 2.37242 2.37165C2.82995 1.9054 3.38365 1.54452 3.99492 1.31415C4.57825 1.08831 5.24492 0.933313 6.21992 0.888313H6.22075ZM13.7041 2.53831C12.7374 2.49415 12.4474 2.48498 9.99992 2.48498C7.55242 2.48498 7.26242 2.49415 6.29575 2.53831C5.40159 2.57915 4.91659 2.72831 4.59325 2.85415C4.16575 3.02081 3.85992 3.21831 3.53909 3.53915C3.23496 3.83502 3.0009 4.19521 2.85409 4.59331C2.72825 4.91665 2.57909 5.40165 2.53825 6.29581C2.49409 7.26248 2.48492 7.55248 2.48492 9.99998C2.48492 12.4475 2.49409 12.7375 2.53825 13.7041C2.57909 14.5983 2.72825 15.0833 2.85409 15.4066C3.00075 15.8041 3.23492 16.165 3.53909 16.4608C3.83492 16.765 4.19575 16.9991 4.59325 17.1458C4.91659 17.2716 5.40159 17.4208 6.29575 17.4616C7.26242 17.5058 7.55159 17.515 9.99992 17.515C12.4483 17.515 12.7374 17.5058 13.7041 17.4616C14.5983 17.4208 15.0833 17.2716 15.4066 17.1458C15.8341 16.9791 16.1399 16.7816 16.4608 16.4608C16.7649 16.165 16.9991 15.8041 17.1458 15.4066C17.2716 15.0833 17.4208 14.5983 17.4616 13.7041C17.5058 12.7375 17.5149 12.4475 17.5149 9.99998C17.5149 7.55248 17.5058 7.26248 17.4616 6.29581C17.4208 5.40165 17.2716 4.91665 17.1458 4.59331C16.9791 4.16581 16.7816 3.85998 16.4608 3.53915C16.1649 3.23504 15.8047 3.00099 15.4066 2.85415C15.0833 2.72831 14.5983 2.57915 13.7041 2.53831ZM8.82909 12.8258C9.48297 13.098 10.2111 13.1347 10.889 12.9297C11.567 12.7248 12.1527 12.2907 12.5463 11.7018C12.9398 11.113 13.1166 10.4057 13.0466 9.7009C12.9766 8.9961 12.6641 8.33746 12.1624 7.83748C11.8426 7.51788 11.4559 7.27316 11.0302 7.12094C10.6045 6.96871 10.1503 6.91278 9.70033 6.95716C9.25039 7.00154 8.81588 7.14513 8.42809 7.37759C8.0403 7.61005 7.70887 7.9256 7.45767 8.30152C7.20647 8.67744 7.04174 9.10439 6.97535 9.55161C6.90895 9.99884 6.94254 10.4552 7.0737 10.8879C7.20486 11.3206 7.43032 11.7188 7.73385 12.0539C8.03739 12.389 8.41144 12.6526 8.82909 12.8258ZM6.66825 6.66831C7.10577 6.23079 7.62519 5.88373 8.19683 5.64695C8.76848 5.41016 9.38117 5.28829 9.99992 5.28829C10.6187 5.28829 11.2314 5.41016 11.803 5.64695C12.3747 5.88373 12.8941 6.23079 13.3316 6.66831C13.7691 7.10583 14.1162 7.62525 14.353 8.1969C14.5897 8.76854 14.7116 9.38123 14.7116 9.99998C14.7116 10.6187 14.5897 11.2314 14.353 11.8031C14.1162 12.3747 13.7691 12.8941 13.3316 13.3316C12.448 14.2153 11.2495 14.7117 9.99992 14.7117C8.7503 14.7117 7.55187 14.2153 6.66825 13.3316C5.78464 12.448 5.28823 11.2496 5.28823 9.99998C5.28823 8.75036 5.78464 7.55193 6.66825 6.66831ZM15.7566 5.98998C15.865 5.8877 15.9518 5.76471 16.0118 5.62829C16.0719 5.49187 16.1039 5.34479 16.1061 5.19576C16.1083 5.04672 16.0805 4.89877 16.0245 4.76065C15.9685 4.62254 15.8853 4.49707 15.7799 4.39168C15.6745 4.28629 15.549 4.20311 15.4109 4.14708C15.2728 4.09104 15.1248 4.06329 14.9758 4.06547C14.8268 4.06764 14.6797 4.09969 14.5433 4.15973C14.4069 4.21976 14.2839 4.30656 14.1816 4.41498C13.9827 4.62584 13.8738 4.90591 13.878 5.19576C13.8822 5.4856 13.9992 5.76238 14.2042 5.96735C14.4092 6.17232 14.686 6.28934 14.9758 6.29356C15.2657 6.29779 15.5457 6.18889 15.7566 5.98998Z" fill="#B81034"/>
</g>
<defs>
<clipPath id="clip0_32_2186">
<rect width="20" height="20" fill="white"/>
</clipPath>
</defs>
</svg>
